<?xml version="1.0" encoding="utf-8"?><svg xmlns="http://www.w3.org/2000/svg" xmlns:xlink="http://www.w3.org/1999/xlink"><symbol viewBox="0 0 20 20" id="arrow-down" xmlns="http://www.w3.org/2000/svg">
    <path d="M15.8333 7.50012L10 13.3335L4.16668 7.50012" stroke-width="1.8" stroke-linecap="round" stroke-linejoin="round"/>
</symbol><symbol viewBox="0 0 40 40" id="avatar" xmlns="http://www.w3.org/2000/svg">
    <g clip-path="url(#bclip0_8571_316)">
        <mask id="bmask0_8571_316" style="mask-type:luminance" maskUnits="userSpaceOnUse" x="0" y="0" width="40" height="40">
            <path d="M40 0H0V40H40V0Z"/>
        </mask>
        <g mask="url(#bmask0_8571_316)">
            <path d="M19.0039 0H21.0352L22.2266 0.117188L23.125 0.234375L24.0039 0.390625L24.9414 0.605469L25.8594 0.859375L26.7969 1.17188L27.6953 1.52344L28.3984 1.83594L28.8867 2.07031L29.3945 2.32422L29.8438 2.57812L30.3516 2.87109L30.7227 3.10547L31.0547 3.32031L31.4258 3.57422L31.7773 3.82812L32.1484 4.10156L32.4609 4.35547L32.6367 4.49219L32.8906 4.70703L33.1641 4.94141L33.3594 5.11719L33.5156 5.25391L33.8086 5.52734L34.0039 5.72266L34.1602 5.85938L34.2578 5.95703V5.99609H34.2969L34.4336 6.15234L34.6289 6.34766L34.7656 6.50391L35 6.75781L35.1758 6.97266L35.3711 7.1875L35.5859 7.46094L35.8203 7.75391L36.0156 8.00781L36.2695 8.35938L36.5039 8.69141L36.7383 9.04297L37.0117 9.47266L37.2461 9.86328L37.4805 10.2734L37.7148 10.7031L37.8906 11.0352L38.1055 11.4844L38.3984 12.1289L38.7109 12.9102L38.8867 13.3984L39.1211 14.1016L39.375 15L39.6094 16.0156L39.7656 16.8945L39.9023 17.9883L40 19.082V20.7812L39.9023 22.0117L39.7852 22.9492L39.668 23.6719L39.5703 24.1797L39.3945 24.9023L39.2578 25.4297L39.082 26.0156L38.8477 26.7188L38.5742 27.4414L38.3594 27.9492L38.0664 28.5938L37.5977 29.5312L37.3242 30L37.0898 30.4102L36.6602 31.0742L36.4062 31.4453L36.1523 31.7969L35.9961 32.0117L35.7812 32.2852L35.5078 32.6367L35.293 32.9102L35.0391 33.2031L34.8047 33.457L34.668 33.6133L34.375 33.9258L33.7695 34.5312L33.6133 34.668L33.3203 34.9414L33.1055 35.1172L32.8711 35.332L32.6758 35.4883L32.3633 35.7422L32.1094 35.9375L31.7383 36.2109L31.4062 36.4453L30.8789 36.7969L30.5469 37.0117L30.1172 37.2656L29.6094 37.5586L29.082 37.832L28.4961 38.125L27.8906 38.3984L27.0117 38.75L26.3477 38.9844L25.5273 39.2383L24.6289 39.4727L23.7109 39.668L22.8711 39.8047L21.9336 39.9219L21.2305 40H18.7695L17.9102 39.9023L16.9922 39.7852L16.2891 39.668L15.4492 39.4922L14.668 39.2969L13.9453 39.082L13.0273 38.7695L12.3828 38.5156L11.7969 38.2617L11.2109 37.9883L10.7812 37.7734L10.4102 37.5781L9.90234 37.2852L9.47266 37.0312L8.96484 36.6992L8.67188 36.5039L8.33984 36.2695L7.96875 35.9961L7.71484 35.8008L7.40234 35.5469L7.1875 35.3711L6.93359 35.1562L6.54297 34.8047L6.30859 34.5898L6.05469 34.3555L5.46875 33.7695L5.33203 33.6133L5.03906 33.3008L4.90234 33.1445L4.6875 32.8906L4.41406 32.5391L4.17969 32.2461L3.98438 31.9922L3.73047 31.6406L3.49609 31.3086L3.22266 30.8984L2.94922 30.4688L2.77344 30.1758L2.46094 29.6289L2.26562 29.2773L2.10938 28.9648L1.79688 28.3203L1.52344 27.6953L1.21094 26.8945L0.898438 25.9766L0.664062 25.1562L0.46875 24.375L0.3125 23.5938L0.175781 22.7148L0.078125 21.8945L0 20.9961V18.9453L0.117188 17.7539L0.214844 16.9922L0.351562 16.1914L0.527344 15.3906L0.703125 14.6875L0.917969 13.9648L1.23047 13.0469L1.58203 12.168L1.95312 11.3477L2.28516 10.6836L2.51953 10.2539L2.79297 9.78516L2.96875 9.49219L3.26172 9.04297L3.39844 8.82812L3.86719 8.16406L4.04297 7.92969L4.25781 7.65625L4.53125 7.30469L4.70703 7.10938L4.88281 6.89453L5.07812 6.67969L5.21484 6.52344L5.44922 6.26953L5.58594 6.13281L5.72266 5.97656L6.09375 5.60547L6.25 5.46875L6.46484 5.25391L6.62109 5.11719L6.89453 4.88281L7.08984 4.70703L7.30469 4.53125L7.57812 4.31641L7.87109 4.08203L8.18359 3.84766L8.51562 3.61328L8.90625 3.33984L9.21875 3.14453L9.55078 2.92969L9.88281 2.73438L10.293 2.5L10.7227 2.26562L11.0938 2.07031L11.6406 1.81641L12.2461 1.54297L12.9883 1.25L13.7695 0.976562L14.3359 0.800781L15.1367 0.585938L15.8984 0.410156L16.7383 0.253906L17.7148 0.117188L18.7305 0.0195312L19.0039 0Z"/>
        </g>
        <path d="M19.0039 0H21.0352L22.2266 0.117188L23.125 0.234375L24.0039 0.390625L24.9414 0.605469L25.8594 0.859375L26.7969 1.17188L27.6953 1.52344L28.3984 1.83594L28.8867 2.07031L29.3945 2.32422L29.8438 2.57812L30.3516 2.87109L30.7227 3.10547L31.0547 3.32031L31.4258 3.57422L31.7773 3.82812L32.1484 4.10156L32.4609 4.35547L32.6367 4.49219L32.8906 4.70703L33.1641 4.94141L33.3594 5.11719L33.5156 5.25391L33.8086 5.52734L34.0039 5.72266L34.1602 5.85938L34.2578 5.95703V5.99609H34.2969L34.4336 6.15234L34.6289 6.34766L34.7656 6.50391L35 6.75781L35.1758 6.97266L35.3711 7.1875L35.5859 7.46094L35.8203 7.75391L36.0156 8.00781L36.2695 8.35938L36.5039 8.69141L36.7383 9.04297L37.0117 9.47266L37.2461 9.86328L37.4805 10.2734L37.7148 10.7031L37.8906 11.0352L38.1055 11.4844L38.3984 12.1289L38.7109 12.9102L38.8867 13.3984L39.1211 14.1016L39.375 15L39.6094 16.0156L39.7656 16.8945L39.9023 17.9883L40 19.082V20.7812L39.9023 22.0117L39.7852 22.9492L39.668 23.6719L39.5703 24.1797L39.3945 24.9023L39.2578 25.4297L39.082 26.0156L38.8477 26.7188L38.5742 27.4414L38.3594 27.9492L38.0664 28.5938L37.5977 29.5312L37.3242 30L37.0898 30.4102L36.6602 31.0742L36.4062 31.4453L36.1523 31.7969L35.9961 32.0117L35.7812 32.2852L35.5078 32.6367L35.4102 32.7734L35.3711 32.7148L35.1367 31.8945L34.9023 31.1914L34.6289 30.4883L34.4141 30L34.1016 29.3555L33.8477 28.8672L33.5938 28.4375L33.2812 27.9297L32.9883 27.5L32.793 27.2266L32.4805 26.8164L32.2656 26.543L32.0508 26.2891L31.8164 26.0156L31.543 25.7227L31.3086 25.4688L31.0547 25.2148L30.8984 25.0781L30.7227 24.9023L30.5664 24.7656L30.3516 24.5703L30.1367 24.3945L29.8047 24.1211L29.4336 23.8477L29.082 23.5938L28.5547 23.2422L28.1445 22.9883L27.7734 22.7734L27.3438 22.5391L26.6016 22.168L25.8789 21.8555L25.2148 21.6016L24.5898 21.3867L24.6289 21.3086L24.9414 21.0938L25.4492 20.6641L25.6836 20.4492L25.8398 20.3125L26.1328 20L26.3672 19.7266L26.6406 19.375L26.875 19.043L27.1094 18.6719L27.3047 18.3203L27.5586 17.793L27.7734 17.2266L27.9492 16.6602L28.1055 15.957L28.2031 15.2539L28.2227 14.9805V13.9844L28.1641 13.3398L28.0859 12.8906L27.9492 12.3047L27.7539 11.6797L27.5391 11.1523L27.3633 10.7617L27.1289 10.332L26.875 9.92188L26.6016 9.53125L26.3477 9.21875L26.1719 9.00391L25.8789 8.69141L25.6055 8.41797L25.4492 8.28125L25.1953 8.06641L24.8242 7.79297L24.4141 7.51953L24.082 7.32422L23.6523 7.08984L23.1445 6.85547L22.6758 6.67969L22.3242 6.5625L21.6992 6.40625L20.9961 6.28906L20.6055 6.25H19.5312L18.9258 6.30859L18.3398 6.40625L17.832 6.52344L17.3242 6.67969L16.9141 6.83594L16.5039 7.01172L16.1328 7.1875L15.7812 7.38281L15.4102 7.61719L15.0586 7.87109L14.7852 8.08594L14.5312 8.30078L14.2969 8.51562L13.8672 8.94531L13.6914 9.16016L13.4766 9.41406L13.3203 9.62891L13.0078 10.0977L12.832 10.3906L12.5195 10.9961L12.2656 11.6211L12.0508 12.2656L11.9336 12.7344L11.8359 13.2617L11.7773 13.7695L11.7578 14.0234V14.7852L11.8164 15.5078L11.9141 16.1328L12.0703 16.7578L12.2656 17.3438L12.4609 17.8125L12.6953 18.3008L12.9102 18.6914L13.1055 19.0039L13.3789 19.3945L13.5742 19.6484L13.8086 19.9219L13.9844 20.1172L14.2188 20.3711L14.5117 20.6445L14.7266 20.8203L14.9609 21.0156L15.332 21.2891L15.4297 21.3477L15.3906 21.3867L14.6289 21.6602L13.9258 21.9336L13.2227 22.2461L12.5195 22.5977L12.0703 22.8516L11.6406 23.1055L11.3086 23.3203L10.8789 23.6133L10.5273 23.8672L10.2734 24.0625L9.96094 24.3164L9.74609 24.4922L9.47266 24.7266L9.16016 25.0195L8.92578 25.2344L8.55469 25.6055L8.41797 25.7617L8.24219 25.9375L8.10547 26.0938L7.92969 26.2891L7.77344 26.4844L7.57812 26.7188L7.34375 27.0312L7.07031 27.4023L6.67969 27.9883L6.42578 28.3984L6.19141 28.8086L5.99609 29.1602L5.80078 29.5312L5.54688 30.0781L5.33203 30.5859L5.07812 31.2695L4.84375 31.9727L4.60938 32.7344L4.53125 32.6953L4.33594 32.4414L4.12109 32.168L3.92578 31.9141L3.69141 31.582L3.4375 31.2305L3.22266 30.8984L2.94922 30.4688L2.77344 30.1758L2.46094 29.6289L2.26562 29.2773L2.10938 28.9648L1.79688 28.3203L1.52344 27.6953L1.21094 26.8945L0.898438 25.9766L0.664062 25.1562L0.46875 24.375L0.3125 23.5938L0.175781 22.7148L0.078125 21.8945L0 20.9961V18.9453L0.117188 17.7539L0.214844 16.9922L0.351562 16.1914L0.527344 15.3906L0.703125 14.6875L0.917969 13.9648L1.23047 13.0469L1.58203 12.168L1.95312 11.3477L2.28516 10.6836L2.51953 10.2539L2.79297 9.78516L2.96875 9.49219L3.26172 9.04297L3.39844 8.82812L3.86719 8.16406L4.04297 7.92969L4.25781 7.65625L4.53125 7.30469L4.70703 7.10938L4.88281 6.89453L5.07812 6.67969L5.21484 6.52344L5.44922 6.26953L5.58594 6.13281L5.72266 5.97656L6.09375 5.60547L6.25 5.46875L6.46484 5.25391L6.62109 5.11719L6.89453 4.88281L7.08984 4.70703L7.30469 4.53125L7.57812 4.31641L7.87109 4.08203L8.18359 3.84766L8.51562 3.61328L8.90625 3.33984L9.21875 3.14453L9.55078 2.92969L9.88281 2.73438L10.293 2.5L10.7227 2.26562L11.0938 2.07031L11.6406 1.81641L12.2461 1.54297L12.9883 1.25L13.7695 0.976562L14.3359 0.800781L15.1367 0.585938L15.8984 0.410156L16.7383 0.253906L17.7148 0.117188L18.7305 0.0195312L19.0039 0Z"/>
    </g>
    <defs>
        <clipPath id="bclip0_8571_316">
            <rect width="40" height="40"/>
        </clipPath>
    </defs>
</symbol><symbol viewBox="0 0 24 24" id="card-link-arrow-right-icon" xmlns="http://www.w3.org/2000/svg">
    <g id="cRight 16px">
        <path id="cVector 1 (Stroke)" fill-rule="evenodd" clip-rule="evenodd" d="M14.4697 5.46967C14.1768 5.76256 14.1768 6.23744 14.4697 6.53033L19.1893 11.25H3C2.58579 11.25 2.25 11.5858 2.25 12C2.25 12.4142 2.58579 12.75 3 12.75H19.1893L14.4697 17.4697C14.1768 17.7626 14.1768 18.2374 14.4697 18.5303C14.7626 18.8232 15.2374 18.8232 15.5303 18.5303L21.5303 12.5303C21.8232 12.2374 21.8232 11.7626 21.5303 11.4697L15.5303 5.46967C15.2374 5.17678 14.7626 5.17678 14.4697 5.46967Z"/>
    </g>
</symbol><symbol viewBox="0 0 24 24" id="cart" xmlns="http://www.w3.org/2000/svg">
    <path d="M8.3991 14.9064C8.00448 14.9064 7.70852 14.9064 7.41256 14.7094C6.91928 14.5123 6.42601 14.1182 6.03139 13.7241C5.63677 13.2315 5.53812 12.5419 5.34081 11.4581L4.55157 6.53202L4.15695 4.36453C4.15695 4.16749 4.0583 3.87192 4.0583 3.7734C3.95964 3.7734 3.76233 3.7734 3.46637 3.7734H1.88789C1.39462 3.7734 1 3.37931 1 2.8867C1 2.39409 1.39462 2 1.88789 2H3.56502C4.15695 2 4.45291 2 4.84753 2.19704C5.1435 2.29557 5.43946 2.59113 5.63677 2.8867C5.83408 3.18227 5.83408 3.47783 5.93274 4.06897L6.2287 5.5468L19.1525 5.94089C20.3363 5.94089 20.9283 6.03941 21.5202 6.33498C22.0135 6.63054 22.5067 7.02463 22.704 7.61576C23 8.2069 23 8.89655 23 9.9803C23 11.064 23 11.6552 22.704 12.2463C22.5067 12.7389 22.1121 13.2315 21.6188 13.5271C21.0269 13.8227 20.435 13.9212 19.3498 14.0197L9.78027 14.8079C9.287 14.9064 8.79372 14.9064 8.3991 14.9064ZM6.52466 7.22168L7.21525 11.1626C7.3139 11.9507 7.41256 12.4433 7.60987 12.6404C7.70852 12.8374 7.90583 12.936 8.10314 13.0345C8.30045 13.133 8.79372 13.0345 9.68161 13.0345L19.2511 12.1478C20.0404 12.0493 20.5336 12.0493 20.7309 11.8522C20.9283 11.7537 21.0269 11.5567 21.1256 11.3596C21.2242 11.1626 21.2242 10.67 21.2242 9.78325C21.2242 8.89655 21.2242 8.40394 21.1256 8.2069C21.0269 8.00985 20.8296 7.81281 20.6323 7.71429C20.435 7.61576 19.843 7.61576 19.0538 7.51724L6.52466 7.22168Z"/>
    <path d="M9.28701 22.0001C7.70854 22.0001 6.42603 20.7193 6.42603 19.1429C6.42603 17.5666 7.70854 16.2858 9.28701 16.2858C10.8655 16.2858 12.148 17.5666 12.148 19.1429C12.148 20.7193 10.8655 22.0001 9.28701 22.0001ZM9.28701 18.0592C8.69508 18.0592 8.20181 18.5518 8.20181 19.1429C8.20181 19.734 8.69508 20.2267 9.28701 20.2267C9.87894 20.2267 10.3722 19.734 10.3722 19.1429C10.3722 18.5518 9.87894 18.0592 9.28701 18.0592Z"/>
    <path d="M18.6592 22.0001C17.0807 22.0001 15.7982 20.7193 15.7982 19.1429C15.7982 17.5666 17.0807 16.2858 18.6592 16.2858C20.2377 16.2858 21.5202 17.5666 21.5202 19.1429C21.5202 20.7193 20.2377 22.0001 18.6592 22.0001ZM18.6592 18.0592C18.0673 18.0592 17.574 18.5518 17.574 19.1429C17.574 19.734 18.0673 20.2267 18.6592 20.2267C19.2511 20.2267 19.7444 19.734 19.7444 19.1429C19.7444 18.5518 19.2511 18.0592 18.6592 18.0592Z"/>
</symbol><symbol viewBox="0 0 24 24" id="close-icon" xmlns="http://www.w3.org/2000/svg">
    <path fill-rule="evenodd" clip-rule="evenodd" d="M5.29289 5.29289C5.68342 4.90237 6.31658 4.90237 6.70711 5.29289L12 10.5858L17.2929 5.29289C17.6834 4.90237 18.3166 4.90237 18.7071 5.29289C19.0976 5.68342 19.0976 6.31658 18.7071 6.70711L13.4142 12L18.7071 17.2929C19.0976 17.6834 19.0976 18.3166 18.7071 18.7071C18.3166 19.0976 17.6834 19.0976 17.2929 18.7071L12 13.4142L6.70711 18.7071C6.31658 19.0976 5.68342 19.0976 5.29289 18.7071C4.90237 18.3166 4.90237 17.6834 5.29289 17.2929L10.5858 12L5.29289 6.70711C4.90237 6.31658 4.90237 5.68342 5.29289 5.29289Z"/>
</symbol><symbol viewBox="0 0 24 24" id="favorites" xmlns="http://www.w3.org/2000/svg">
    <path d="m12 21.5-.39-.19C1.73 15.93.75 10.74 1.04 8.14c.29-2.59 2.15-4.71 4.7-5.38 2.25-.67 4.6 0 6.26 1.63 1.76-1.63 4.01-2.31 6.26-1.63 2.54.67 4.4 2.88 4.7 5.38.29 2.59-.68 7.78-10.57 13.07l-.39.29ZM7.5 4.2c-.49 0-.88.1-1.37.19C4.27 4.87 3 6.41 2.8 8.33c-.2 1.73.29 6.15 9.2 11.15 8.9-5 9.39-9.42 9.2-11.15-.2-1.92-1.57-3.46-3.42-3.94-1.86-.48-3.82.1-5.09 1.83l-.68.77-.68-.86c-1.08-1.25-2.45-1.92-3.82-1.92Z"/>
</symbol><symbol viewBox="0 0 40 40" id="features-01-icon" xmlns="http://www.w3.org/2000/svg">
    <path d="M32.903 2.34375C32.0495 2.34375 31.2494 2.57414 30.5593 2.97437V1.17188C30.5593 0.524687 30.0346 0 29.3874 0H10.6374C9.99016 0 9.46547 0.524687 9.46547 1.17188V2.98867C8.76992 2.57953 7.96063 2.34375 7.09695 2.34375C4.51227 2.34375 2.40945 4.44656 2.40945 7.03125C2.40945 9.00273 2.99367 10.9077 4.09891 12.5402C5.98047 15.3193 8.3007 16.0405 10.2206 16.8084C11.3277 19.5653 13.5663 21.7502 16.3589 22.7846L15.4948 28.2812H15.3249C13.3864 28.2812 11.8093 29.8584 11.8093 31.7969V37.6562H10.6374C9.99023 37.6562 9.46555 38.1809 9.46555 38.8281C9.46555 39.4753 9.99023 40 10.6374 40H29.3874C30.0346 40 30.5593 39.4753 30.5593 38.8281C30.5593 38.1809 30.0346 37.6562 29.3874 37.6562H28.2155V31.7969C28.2155 29.8584 26.6384 28.2812 24.6999 28.2812H24.5301L23.666 22.7847C26.4627 21.7487 28.7038 19.5591 29.8092 16.7966C31.6229 16.0711 34.0003 15.3478 35.9012 12.5402C37.0064 10.9077 37.5906 9.00266 37.5906 7.03125C37.5905 4.44656 35.4877 2.34375 32.903 2.34375ZM9.4568 13.9787C6.59945 12.8357 4.7532 10.1087 4.7532 7.03125C4.7532 5.73891 5.80461 4.6875 7.09695 4.6875C8.3893 4.6875 9.4407 5.73891 9.4407 7.03125C9.4407 7.11367 9.44938 7.19398 9.46555 7.27156V12.8906C9.46555 13.2673 9.48578 13.6392 9.52453 14.0058L9.4568 13.9787ZM25.8718 37.6562H14.153V35.3125H25.8718V37.6562ZM24.6999 30.625C25.3461 30.625 25.8718 31.1507 25.8718 31.7969V32.9688H14.153V31.7969C14.153 31.1507 14.6788 30.625 15.3249 30.625C15.9607 30.625 23.2089 30.625 24.6999 30.625ZM17.8673 28.2812L18.6427 23.3487C19.0912 23.4071 19.5483 23.4375 20.0124 23.4375C20.4766 23.4375 20.9337 23.407 21.3821 23.3487L22.1576 28.2812H17.8673ZM28.2155 12.8906C28.2155 17.4138 24.5356 21.0938 20.0124 21.0938C15.4892 21.0938 11.8093 17.4138 11.8093 12.8906V7.03125H28.2155V12.8906ZM28.2155 4.6875H11.8093V2.34375H28.2155V4.6875ZM30.5431 13.9787L30.5015 13.9953C30.5395 13.6322 30.5592 13.2637 30.5592 12.8906V7.03125C30.5593 5.73891 31.6107 4.6875 32.903 4.6875C34.1954 4.6875 35.2468 5.73891 35.2468 7.03125C35.2468 10.1087 33.4005 12.8358 30.5431 13.9787Z"/>
</symbol><symbol viewBox="0 0 40 40" id="features-02-icon" xmlns="http://www.w3.org/2000/svg">
    <g clip-path="url(#hclip0_27_489)">
        <path d="M37.8573 14.1741C37.3295 12.5397 37.5545 10.0864 36.1827 8.19207C34.8 6.28286 32.3952 5.7402 31.0373 4.74707C29.6938 3.76442 28.4438 1.62606 26.1837 0.888559C23.9873 0.17184 21.7414 1.14442 20 1.14442C18.2588 1.14442 16.013 0.171606 13.8163 0.888481C11.5566 1.62582 10.3056 3.76465 8.96289 4.74684C7.60648 5.73879 5.19992 6.28293 3.8175 8.19184C2.4468 10.0846 2.66953 12.5436 2.14266 14.174C1.64125 15.7258 0 17.5882 0 20.0001C0 22.4135 1.63938 24.2687 2.14266 25.8261C2.67047 27.4605 2.44547 29.9139 3.81734 31.8082C5.19992 33.7175 7.60461 34.26 8.96266 35.2532C10.306 36.2357 11.5562 38.3743 13.8163 39.1117C16.0112 39.8279 18.2606 38.8558 20 38.8558C21.737 38.8558 23.9916 39.8269 26.1837 39.1118C28.4434 38.3744 29.6937 36.2361 31.0371 35.2534C32.3935 34.2614 34.8001 33.7173 36.1825 31.8084C37.5533 29.9156 37.3304 27.4568 37.8573 25.8262C38.3587 24.2743 40 22.4119 40 20.0001C40 17.5869 38.361 15.7322 37.8573 14.1741ZM34.8838 24.8653C34.2686 26.7696 34.4298 28.9007 33.6516 29.9753C32.863 31.0641 30.7913 31.5614 29.1926 32.7308C27.6114 33.8871 26.5032 35.7202 25.2143 36.1407C23.9949 36.5387 22.0077 35.7307 20.0001 35.7307C17.9777 35.7307 16.011 36.5404 14.7858 36.1407C13.497 35.7202 12.3904 33.8884 10.8075 32.7307C9.21828 31.5685 7.13469 31.0609 6.34836 29.9751C5.57273 28.9042 5.72781 26.7582 5.11633 24.8654C4.51695 23.0107 3.125 21.4049 3.125 20.0001C3.125 18.594 4.5157 16.9936 5.11617 15.135C5.73141 13.2307 5.57023 11.0994 6.34836 10.025C7.13648 8.93684 9.20984 8.43786 10.8075 7.26942C12.3937 6.10934 13.4949 4.28067 14.7856 3.8595C16.004 3.462 17.9977 4.26957 19.9999 4.26957C22.0259 4.26957 23.9877 3.45926 25.2142 3.8595C26.5028 4.27997 27.6104 6.11247 29.1926 7.2695C30.7816 8.43176 32.8653 8.93934 33.6516 10.025C34.4274 11.0962 34.2715 13.24 34.8837 15.1348V15.1349C35.483 16.9895 36.875 18.5954 36.875 20.0001C36.875 21.4063 35.4843 23.0066 34.8838 24.8653ZM27.1987 14.9849C27.8089 15.5951 27.8089 16.5844 27.1987 17.1946L19.3779 25.0154C18.7677 25.6256 17.7783 25.6255 17.1681 25.0154L12.8014 20.6486C12.1912 20.0384 12.1911 19.0491 12.8013 18.4389C13.4116 17.8288 14.401 17.8287 15.011 18.4389L18.273 21.7008L24.9888 14.985C25.5991 14.3747 26.5884 14.3747 27.1987 14.9849Z"/>
    </g>
    <defs>
        <clipPath id="hclip0_27_489">
            <rect width="40" height="40"/>
        </clipPath>
    </defs>
</symbol><symbol viewBox="0 0 40 40" id="features-03-icon" xmlns="http://www.w3.org/2000/svg">
    <g clip-path="url(#iclip0_27_487)">
        <path d="M36.8986 20.7346V2.5198C36.8986 1.86997 36.3718 1.34314 35.722 1.34314H4.19674C3.54691 1.34314 3.02008 1.86997 3.02008 2.5198V22.1867C2.45246 22.2694 1.89755 22.4898 1.40664 22.8542C-0.140899 23.9516 -0.506918 26.4073 0.789368 27.9218L6.08928 34.347C9.36996 38.1866 12.855 38.657 18.0359 38.657C22.4819 38.657 24.4696 38.6766 28.3443 37.7937L32.1173 36.8913C32.7291 37.7456 33.7003 38.299 34.7922 38.299H36.6508C38.4975 38.299 40 36.7163 40 34.7708V24.2523C40.0001 22.3947 38.63 20.8688 36.8986 20.7346ZM31.6098 23.1551L30.042 22.3588C27.4642 21.0577 24.4839 21.0095 21.8655 22.2269C21.1511 22.5079 19.5929 23.4506 18.7847 23.4191H13.3445C11.54 23.4191 10.0718 24.8872 10.0718 26.6918V27.5499C10.0617 27.5392 10.0511 27.5291 10.0411 27.5182L6.15619 23.3013C5.9211 23.0462 5.65697 22.8326 5.37348 22.6613V10.9874H15.0027V15.3007C15.0027 15.9505 15.5295 16.4773 16.1794 16.4773H23.6042C24.254 16.4773 24.7808 15.9505 24.7808 15.3007V10.9874H34.5454V20.7346C33.1706 20.8408 32.0242 21.8243 31.6098 23.1551ZM17.356 10.9874H22.4274V14.124H17.356V10.9874ZM34.5453 8.63404H24.7808V3.69646H34.5454V8.63404H34.5453ZM22.4275 3.69646V8.63412H17.356V3.69646H22.4275ZM15.0026 3.69646V8.63412H5.3734V3.69646H15.0026ZM27.7982 35.5046C24.2188 36.3244 22.0631 36.2912 18.0781 36.2912C13.2146 36.2912 10.8646 36.2126 7.90479 32.8494L2.60488 26.4243C1.683 25.2238 3.35276 23.8067 4.4254 24.8957L8.31034 29.1127C9.3371 30.1961 10.6291 30.7923 12.2216 30.8274H22.9926C23.6425 30.8274 24.1693 30.3006 24.1693 29.6507C24.1693 29.0009 23.6425 28.4741 22.9926 28.4741H12.425V26.6916C12.425 26.1847 12.8374 25.7722 13.3444 25.7722H18.7847C20.0103 25.86 21.7793 24.8366 22.8575 24.3607C24.8186 23.4489 27.0508 23.485 28.9789 24.4581L31.4432 25.7098V34.6326L27.7982 35.5046ZM37.6467 34.7707C37.6467 35.4186 37.2 35.9456 36.6509 35.9456H34.7922C34.2431 35.9456 33.7965 35.4186 33.7965 34.7707V24.2523C33.7965 23.6044 34.2432 23.0773 34.7922 23.0773H36.6509C37.2 23.0773 37.6467 23.6044 37.6467 24.2523V34.7707Z"/>
    </g>
    <defs>
        <clipPath id="iclip0_27_487">
            <rect width="40" height="40"/>
        </clipPath>
    </defs>
</symbol><symbol viewBox="0 0 40 40" id="features-04-icon" xmlns="http://www.w3.org/2000/svg">
    <g clip-path="url(#jclip0_27_492)">
        <path d="M36.4624 15.9752C36.1995 7.12165 28.9161 0 20 0C11.0838 0 3.80043 7.12165 3.53745 15.9752L2.35291 17.1598V25.1932L3.52938 26.3696V31.8431C3.52938 35.0435 6.13298 37.6471 9.3333 37.6471H10.7906C11.2762 39.0164 12.5839 40 14.1176 40H16.4706C18.0053 40 19.3137 39.015 19.7986 37.6442C19.8658 37.6454 19.9331 37.6471 20 37.6471C25.6814 37.6471 30.4351 33.5987 31.5281 28.2353H34.6049L37.647 25.1932V17.1598L36.4624 15.9752ZM20 2.35294C26.9828 2.35294 32.7969 7.44933 33.9204 14.1176H31.5281C30.4351 8.7542 25.6814 4.70588 20 4.70588C14.3186 4.70588 9.56483 8.7542 8.47181 14.1176H6.07949C7.20302 7.44933 13.0171 2.35294 20 2.35294ZM29.1139 14.1176C25.3109 14.1063 22.6246 14.3379 20.4098 11.1004L19.3344 9.52839L18.4102 11.1938C17.0635 13.6204 15.2499 14.1176 12.9411 14.1176H10.886C11.9335 10.0629 15.6225 7.05882 20 7.05882C24.3775 7.05882 28.0665 10.0629 29.1139 14.1176ZM8.23526 25.8824H6.36961L4.70585 24.2186V18.1344L6.36961 16.4706H8.23526V25.8824ZM5.88232 31.8431V28.2353H8.46953C8.91244 30.4294 9.97212 32.4435 11.542 34.0611C11.2129 34.4127 10.9548 34.8311 10.7906 35.2941H9.3333C7.4304 35.2941 5.88232 33.746 5.88232 31.8431ZM16.4706 37.6471H14.1176C13.4688 37.6471 12.9411 37.1194 12.9411 36.4706C12.9411 35.8219 13.4688 35.2941 14.1176 35.2941H16.4706C17.1193 35.2941 17.647 35.8219 17.647 36.4706C17.647 37.1194 17.1193 37.6471 16.4706 37.6471ZM29.4117 25.8824C29.4117 31.072 25.1896 35.2941 20 35.2941C19.9325 35.2941 19.8645 35.2928 19.7966 35.2912C19.3102 33.9234 18.0032 32.9412 16.4706 32.9412C14.0549 32.9465 14.0934 32.9291 13.7923 32.9568C11.7498 31.1665 10.5882 28.6166 10.5882 25.8824V16.4706H12.9411C15.0233 16.4706 17.5589 16.1273 19.5218 13.7384C22.1116 16.4524 25.2764 16.4706 28.1175 16.4706H29.4117V25.8824ZM35.2941 24.2186L33.6303 25.8824H31.7647V16.4706H33.6303L35.2941 18.1344V24.2186Z"/>
    </g>
    <defs>
        <clipPath id="jclip0_27_492">
            <rect width="40" height="40"/>
        </clipPath>
    </defs>
</symbol><symbol viewBox="0 0 24 24" id="link-arrow-icon" xmlns="http://www.w3.org/2000/svg">
    <path d="M19.3652 12.56L14.3852 17.56C14.2252 17.72 14.0251 17.8 13.8251 17.8C13.6251 17.8 13.4251 17.72 13.2652 17.56C12.9451 17.24 12.9451 16.74 13.2652 16.42L16.8852 12.78H5.20515C4.76515 12.78 4.40515 12.42 4.40515 11.98C4.40515 11.54 4.76515 11.18 5.20515 11.18H16.8852L13.2652 7.54004C12.9451 7.22004 12.9451 6.72003 13.2652 6.40003C13.5851 6.08003 14.0852 6.08003 14.4052 6.40003L19.3852 11.4C19.6852 11.74 19.6852 12.26 19.3652 12.56Z"/>
</symbol><symbol viewBox="0 0 20 20" id="location-icon" xmlns="http://www.w3.org/2000/svg">
    <path fill-rule="evenodd" clip-rule="evenodd" d="M10.974 18.708C13.0898 17.2644 17.9167 13.4716 17.9167 8.91667C17.9167 4.54441 14.3723 1 10 1C5.62775 1 2.08333 4.54441 2.08333 8.91667C2.08333 13.4716 6.91025 17.2644 9.02596 18.708C9.61759 19.1117 10.3824 19.1117 10.974 18.708ZM10 11.4167C11.3807 11.4167 12.5 10.2974 12.5 8.91667C12.5 7.53595 11.3807 6.41667 10 6.41667C8.61929 6.41667 7.5 7.53595 7.5 8.91667C7.5 10.2974 8.61929 11.4167 10 11.4167Z"/>
</symbol><symbol viewBox="0 0 24 24" id="mobile-btn-close" xmlns="http://www.w3.org/2000/svg">
    <path fill-rule="evenodd" clip-rule="evenodd" d="M5.29289 5.29289C5.68342 4.90237 6.31658 4.90237 6.70711 5.29289L12 10.5858L17.2929 5.29289C17.6834 4.90237 18.3166 4.90237 18.7071 5.29289C19.0976 5.68342 19.0976 6.31658 18.7071 6.70711L13.4142 12L18.7071 17.2929C19.0976 17.6834 19.0976 18.3166 18.7071 18.7071C18.3166 19.0976 17.6834 19.0976 17.2929 18.7071L12 13.4142L6.70711 18.7071C6.31658 19.0976 5.68342 19.0976 5.29289 18.7071C4.90237 18.3166 4.90237 17.6834 5.29289 17.2929L10.5858 12L5.29289 6.70711C4.90237 6.31658 4.90237 5.68342 5.29289 5.29289Z"/>
</symbol><symbol viewBox="0 0 18 14" id="mobile-btn-open" xmlns="http://www.w3.org/2000/svg">
    <path d="M1 1H17M1 7H17M1 13H17" stroke-width="1.5" stroke-linecap="round"/>
</symbol><symbol viewBox="0 0 20 20" id="phone-icon" xmlns="http://www.w3.org/2000/svg">
    <path d="M13.4307 13.0668L12.9152 13.8401C12.8123 13.9944 12.6762 14.1261 12.4969 14.1735C11.9095 14.3287 10.3499 14.3988 7.9755 12.0244C5.60111 9.65004 5.67119 8.09046 5.82641 7.50302C5.8738 7.32368 6.00549 7.1876 6.15983 7.0847L6.93308 6.5692C7.50878 6.1854 7.66435 5.40757 7.28055 4.83187L5.82014 2.64126C5.48514 2.13876 4.83933 1.94678 4.28423 2.18468L3.62544 2.46702C3.12498 2.6815 2.71674 3.06643 2.47324 3.55343C2.2698 3.96031 2.11213 4.38877 2.09076 4.84317C2.02344 6.27515 2.33743 9.80312 6.26713 13.7328C10.1968 17.6625 13.7248 17.9765 15.1568 17.9092C15.6111 17.8878 16.0396 17.7301 16.4465 17.5267C16.9335 17.2832 17.3184 16.8749 17.5329 16.3745L17.8152 15.7157C18.0531 15.1606 17.8612 14.5148 17.3587 14.1798L15.168 12.7194C14.5923 12.3356 13.8145 12.4911 13.4307 13.0668Z"/>
</symbol><symbol viewBox="0 0 20 20" id="search-icon" xmlns="http://www.w3.org/2000/svg">
    <path d="M16.6666 16.6667L12.5801 12.5802M12.5801 12.5802C13.5604 11.6 14.1666 10.2458 14.1666 8.75004C14.1666 5.7585 11.7415 3.33337 8.74998 3.33337C5.75844 3.33337 3.33331 5.7585 3.33331 8.75004C3.33331 11.7416 5.75844 14.1667 8.74998 14.1667C10.2458 14.1667 11.5999 13.5604 12.5801 12.5802Z" stroke-width="1.8" stroke-linecap="round" stroke-linejoin="round"/>
</symbol><symbol viewBox="0 0 24 24" id="send-icon" xmlns="http://www.w3.org/2000/svg">
    <path d="M20.7825 3.21745C20.6813 3.1167 20.5534 3.04695 20.4139 3.01639C20.2744 2.98584 20.1291 2.99574 19.995 3.04495L3.495 9.04495C3.3527 9.09892 3.23019 9.19491 3.14374 9.32016C3.05729 9.44542 3.01099 9.59401 3.01099 9.7462C3.01099 9.89839 3.05729 10.047 3.14374 10.1722C3.23019 10.2975 3.3527 10.3935 3.495 10.4474L9.9375 13.0199L14.6925 8.24995L15.75 9.30745L10.9725 14.0849L13.5525 20.5275C13.6081 20.667 13.7043 20.7866 13.8286 20.8709C13.953 20.9551 14.0998 21.0001 14.25 20.9999C14.4016 20.9968 14.5486 20.9479 14.6718 20.8595C14.795 20.7711 14.8885 20.6475 14.94 20.5049L20.94 4.00495C20.9911 3.87226 21.0034 3.72777 20.9755 3.58834C20.9477 3.44891 20.8807 3.32028 20.7825 3.21745Z"/>
</symbol><symbol viewBox="0 0 24 24" id="share-icon" xmlns="http://www.w3.org/2000/svg">
    <g id="rgridicons:share">
        <path id="rVector" d="M18 16C17.212 16 16.5 16.31 15.966 16.807L8.91 12.7C8.96 12.47 9 12.24 9 12C9 11.76 8.96 11.53 8.91 11.3L15.96 7.19C16.5 7.69 17.21 8 18 8C19.66 8 21 6.66 21 5C21 3.34 19.66 2 18 2C16.34 2 15 3.34 15 5C15 5.24 15.04 5.47 15.09 5.7L8.04 9.81C7.5 9.31 6.79 9 6 9C4.34 9 3 10.34 3 12C3 13.66 4.34 15 6 15C6.79 15 7.5 14.69 8.04 14.19L15.088 18.308C15.0317 18.5344 15.0022 18.7667 15 19C15 19.5933 15.1759 20.1734 15.5056 20.6667C15.8352 21.1601 16.3038 21.5446 16.8519 21.7716C17.4001 21.9987 18.0033 22.0581 18.5853 21.9424C19.1672 21.8266 19.7018 21.5409 20.1213 21.1213C20.5409 20.7018 20.8266 20.1672 20.9424 19.5853C21.0581 19.0033 20.9987 18.4001 20.7716 17.8519C20.5446 17.3038 20.1601 16.8352 19.6667 16.5056C19.1734 16.1759 18.5933 16 18 16Z"/>
    </g>
</symbol><symbol viewBox="0 0 24 24" id="slider-arrow-icon" xmlns="http://www.w3.org/2000/svg">
    <path d="M9.02273 20C8.79545 20 8.45455 19.8987 8.34091 19.6962C7.88636 19.2911 7.88636 18.7848 8.34091 18.3797L15.6136 11.8987L8.34091 5.51899C7.88636 5.21519 7.88636 4.60759 8.34091 4.3038C8.68182 3.89873 9.36364 3.89873 9.70455 4.3038L17.6591 11.3924C18.1136 11.7975 18.1136 12.3038 17.6591 12.7089L9.70455 19.7975C9.59091 19.8987 9.25 20 9.02273 20Z"/>
</symbol></svg>