<?xml version="1.0" encoding="utf-8"?><svg viewBox="0 0 40 40" xmlns="http://www.w3.org/2000/svg" xmlns:xlink="http://www.w3.org/1999/xlink"><style>:root>svg{display:none}:root>svg:target{display:block}</style><svg fill="none" viewBox="0 0 20 20" id="arrow-down" xmlns="http://www.w3.org/2000/svg">
    <path d="M15.833 7.5 10 13.334 4.167 7.5" stroke="#3A3A3A" stroke-width="1.8" stroke-linecap="round" stroke-linejoin="round"/>
</svg><svg fill="none" viewBox="0 0 40 40" id="avatar" xmlns="http://www.w3.org/2000/svg">
    <g clip-path="url(#ba)">
        <mask id="bb" style="mask-type:luminance" maskUnits="userSpaceOnUse" x="0" y="0" width="40" height="40">
            <path d="M40 0H0v40h40V0Z" fill="#fff"/>
        </mask>
        <g mask="url(#bb)">
            <path d="M19.004 0h2.031l1.192.117.898.117.879.157.937.214.918.254.938.313.898.351.703.313.489.234.508.254.449.254.508.293.37.234.333.215.37.254.352.254.371.274.313.253.176.137.254.215.273.234.195.176.157.137.293.273.195.196.156.136.098.098v.04h.039l.137.155.195.196.137.156.234.254.176.215.195.215.215.273.234.293.196.254.254.351.234.332.234.352.274.43.234.39.234.41.235.43.176.332.215.45.292.644.313.781.176.488.234.704.254.898.234 1.016.157.879.136 1.093.098 1.094v1.7l-.098 1.23-.117.937-.117.723-.098.508-.175.722-.137.528-.176.586-.234.703-.274.722-.215.508-.293.645-.468.937-.274.469-.234.41-.43.664-.254.371-.254.352-.156.215-.215.273-.273.352-.215.273-.254.293-.234.254-.137.156-.293.313-.605.605-.157.137-.293.273-.215.176-.234.215-.195.156-.313.254-.254.196-.37.273-.333.234-.527.352-.332.215-.43.254-.508.293-.527.273-.586.293-.605.273-.88.352-.663.234-.82.254-.9.235-.917.195-.84.137-.937.117-.704.078h-2.46l-.86-.098-.918-.117-.703-.117-.84-.176-.781-.195-.723-.215-.918-.313-.644-.253-.586-.254-.586-.274-.43-.215-.37-.195-.509-.293-.43-.254-.507-.332-.293-.195-.332-.234-.371-.274-.254-.195-.313-.254-.215-.176-.253-.215-.391-.351-.234-.215-.254-.235-.586-.585-.137-.157-.293-.312-.137-.157-.215-.253-.273-.352-.234-.293-.196-.254-.254-.351-.234-.332-.273-.41-.274-.43-.176-.293-.312-.547-.195-.352-.157-.312-.312-.645-.274-.625-.312-.8-.313-.918-.234-.82-.195-.782-.156-.781-.137-.88-.098-.82L0 20.997v-2.05l.117-1.192.098-.762.137-.8.175-.801.176-.704.215-.722.312-.918.352-.879.371-.82.332-.664.235-.43.273-.469.176-.293.293-.449.136-.215.47-.664.175-.234.215-.274.273-.351.176-.196.176-.214.195-.215.137-.157.234-.253.137-.137.137-.156.37-.372.157-.136.215-.215.156-.137.274-.234.195-.176.215-.176.273-.215.293-.234.313-.234.332-.235.39-.273.313-.195.332-.215.332-.196.41-.234.43-.234.37-.196.548-.254.605-.273.742-.293.782-.273.566-.176.8-.215.762-.176.84-.156.977-.137L18.73.02l.274-.02Z" fill="#CAC4BF"/>
        </g>
        <path d="M19.004 0h2.031l1.192.117.898.117.879.157.937.214.918.254.938.313.898.351.703.313.489.234.508.254.449.254.508.293.37.234.333.215.37.254.352.254.371.274.313.253.176.137.254.215.273.234.195.176.157.137.293.273.195.196.156.136.098.098v.04h.039l.137.155.195.196.137.156.234.254.176.215.195.215.215.273.234.293.196.254.254.351.234.332.234.352.274.43.234.39.234.41.235.43.176.332.215.45.292.644.313.781.176.488.234.704.254.898.234 1.016.157.879.136 1.093.098 1.094v1.7l-.098 1.23-.117.937-.117.723-.098.508-.175.722-.137.528-.176.586-.234.703-.274.722-.215.508-.293.645-.468.937-.274.469-.234.41-.43.664-.254.371-.254.352-.156.215-.215.273-.273.352-.098.136-.039-.058-.234-.82-.235-.704-.273-.703-.215-.488-.312-.645-.254-.488-.254-.43-.313-.507-.293-.43-.195-.273-.313-.41-.214-.274-.215-.254-.235-.273-.273-.293-.234-.254-.254-.254-.157-.137-.175-.176-.157-.136-.214-.196-.215-.175-.332-.274-.371-.273-.352-.254-.527-.352-.41-.254-.372-.215-.43-.234-.741-.371-.723-.313-.664-.253-.625-.215.039-.078.312-.215.508-.43.235-.215.156-.137.293-.312.234-.273.274-.352.234-.332.234-.371.196-.352.254-.527.214-.566.176-.567.156-.703.098-.703.02-.274v-.996l-.059-.644-.078-.45-.137-.585-.195-.625-.215-.528-.176-.39-.234-.43-.254-.41-.273-.39-.254-.313-.176-.215-.293-.313-.274-.273-.156-.137-.254-.215-.37-.273-.41-.273-.333-.196-.43-.234-.508-.235-.468-.175-.352-.117-.625-.157-.703-.117-.39-.039H19.53l-.605.059-.586.097-.508.117-.508.157-.41.156-.41.176-.371.176-.352.195-.37.234-.352.254-.274.215-.254.215-.234.215-.43.43-.176.214-.214.254-.157.215-.312.469-.176.293-.313.605-.253.625-.215.645-.117.468-.098.528-.059.508-.02.253v.762l.06.723.097.625.156.625.196.586.195.468.234.489.215.39.195.313.274.39.195.254.235.274.175.195.235.254.293.274.215.175.234.196.371.273.098.059-.04.039-.761.273-.703.274-.703.312-.704.352-.449.254-.43.253-.331.215-.43.293-.352.254-.254.195-.312.254-.215.176-.273.235-.313.293-.234.214-.371.371-.137.157-.176.175-.137.157-.175.195-.157.195-.195.235-.234.312-.274.371-.39.586-.254.41-.235.41-.195.352-.195.371-.254.547-.215.508-.254.684-.234.703-.235.761-.078-.039-.195-.254-.215-.273-.195-.254-.235-.332-.253-.352-.215-.332-.274-.43-.176-.292-.312-.547-.195-.352-.157-.312-.312-.645-.274-.625-.312-.8-.313-.918-.234-.82-.195-.782-.156-.781-.137-.88-.098-.82L0 20.997v-2.05l.117-1.192.098-.762.137-.8.175-.801.176-.704.215-.722.312-.918.352-.879.371-.82.332-.664.235-.43.273-.469.176-.293.293-.449.136-.215.47-.664.175-.234.215-.274.273-.351.176-.196.176-.214.195-.215.137-.157.234-.253.137-.137.137-.156.37-.372.157-.136.215-.215.156-.137.274-.234.195-.176.215-.176.273-.215.293-.234.313-.234.332-.235.39-.273.313-.195.332-.215.332-.196.41-.234.43-.234.37-.196.548-.254.605-.273.742-.293.782-.273.566-.176.8-.215.762-.176.84-.156.977-.137L18.73.02l.274-.02Z" fill="#F3EEEA"/>
    </g>
    <defs>
        <clipPath id="ba">
            <path fill="#fff" d="M0 0h40v40H0z"/>
        </clipPath>
    </defs>
</svg><svg fill="none" viewBox="0 0 24 24" id="card-link-arrow-right-icon" xmlns="http://www.w3.org/2000/svg">
    <path fill-rule="evenodd" clip-rule="evenodd" d="M14.47 5.47a.75.75 0 0 0 0 1.06l4.72 4.72H3a.75.75 0 0 0 0 1.5h16.19l-4.72 4.72a.75.75 0 1 0 1.06 1.06l6-6a.75.75 0 0 0 0-1.06l-6-6a.75.75 0 0 0-1.06 0Z" fill="#fff"/>
</svg><svg fill="none" viewBox="0 0 24 24" id="cart" xmlns="http://www.w3.org/2000/svg">
    <path d="M8.4 14.906c-.396 0-.691 0-.987-.197-.494-.197-.987-.59-1.382-.985-.394-.492-.493-1.182-.69-2.266l-.79-4.926-.394-2.167c0-.198-.099-.493-.099-.592h-2.17A.884.884 0 0 1 1 2.887C1 2.394 1.395 2 1.888 2h1.677c.592 0 .888 0 1.283.197.296.099.591.394.789.69.197.295.197.59.296 1.182l.296 1.478 12.924.394c1.183 0 1.775.098 2.367.394.494.296.987.69 1.184 1.28C23 8.208 23 8.898 23 9.98c0 1.084 0 1.675-.296 2.266a2.725 2.725 0 0 1-1.085 1.281c-.592.296-1.184.394-2.27.493l-9.569.788c-.493.098-.986.098-1.38.098ZM6.524 7.222l.69 3.94c.099.789.198 1.281.395 1.478.099.197.296.296.493.394.197.099.69 0 1.579 0l9.57-.886c.788-.099 1.282-.099 1.479-.296.197-.098.296-.295.395-.492.098-.197.098-.69.098-1.577 0-.886 0-1.38-.098-1.576a1.188 1.188 0 0 0-.494-.493c-.197-.098-.789-.098-1.578-.197l-12.53-.295ZM9.287 22a2.861 2.861 0 0 1-2.861-2.857 2.861 2.861 0 0 1 5.722 0A2.861 2.861 0 0 1 9.287 22Zm0-3.94c-.592 0-1.085.492-1.085 1.083s.493 1.084 1.085 1.084 1.085-.493 1.085-1.084c0-.591-.493-1.084-1.085-1.084ZM18.66 22a2.861 2.861 0 0 1-2.862-2.857 2.861 2.861 0 0 1 5.722 0A2.861 2.861 0 0 1 18.66 22Zm0-3.94c-.593 0-1.086.492-1.086 1.083s.493 1.084 1.085 1.084 1.085-.493 1.085-1.084c0-.591-.493-1.084-1.085-1.084Z" fill="#262F56"/>
</svg><svg fill="none" viewBox="0 0 24 24" id="close-icon" xmlns="http://www.w3.org/2000/svg">
    <path fill-rule="evenodd" clip-rule="evenodd" d="M5.293 5.293a1 1 0 0 1 1.414 0L12 10.586l5.293-5.293a1 1 0 1 1 1.414 1.414L13.414 12l5.293 5.293a1 1 0 0 1-1.414 1.414L12 13.414l-5.293 5.293a1 1 0 0 1-1.414-1.414L10.586 12 5.293 6.707a1 1 0 0 1 0-1.414Z" fill="#6C7275"/>
</svg><svg viewBox="0 0 24 24" id="favorites" xmlns="http://www.w3.org/2000/svg">
    <path d="m12 21.5-.39-.19C1.73 15.93.75 10.74 1.04 8.14c.29-2.59 2.15-4.71 4.7-5.38 2.25-.67 4.6 0 6.26 1.63 1.76-1.63 4.01-2.31 6.26-1.63 2.54.67 4.4 2.88 4.7 5.38.29 2.59-.68 7.78-10.57 13.07l-.39.29ZM7.5 4.2c-.49 0-.88.1-1.37.19C4.27 4.87 3 6.41 2.8 8.33c-.2 1.73.29 6.15 9.2 11.15 8.9-5 9.39-9.42 9.2-11.15-.2-1.92-1.57-3.46-3.42-3.94-1.86-.48-3.82.1-5.09 1.83l-.68.77-.68-.86c-1.08-1.25-2.45-1.92-3.82-1.92Z"/>
</svg><svg fill="none" viewBox="0 0 40 40" id="features-01-icon" xmlns="http://www.w3.org/2000/svg">
    <path d="M32.903 2.344c-.853 0-1.654.23-2.344.63V1.172C30.56.525 30.035 0 29.387 0h-18.75C9.99 0 9.465.525 9.465 1.172v1.817a4.657 4.657 0 0 0-2.368-.645A4.693 4.693 0 0 0 2.409 7.03a9.79 9.79 0 0 0 1.69 5.51c1.881 2.778 4.202 3.5 6.122 4.267a10.603 10.603 0 0 0 6.138 5.977l-.864 5.496h-.17a3.52 3.52 0 0 0-3.516 3.516v5.86h-1.172a1.172 1.172 0 0 0 0 2.343h18.75a1.172 1.172 0 0 0 0-2.344h-1.172v-5.86a3.52 3.52 0 0 0-3.515-3.515h-.17l-.864-5.496a10.604 10.604 0 0 0 6.143-5.988c1.814-.726 4.191-1.45 6.092-4.257a9.79 9.79 0 0 0 1.69-5.509 4.693 4.693 0 0 0-4.688-4.687ZM9.457 13.979A7.447 7.447 0 0 1 4.753 7.03a2.346 2.346 0 0 1 2.344-2.343A2.346 2.346 0 0 1 9.44 7.03c0 .083.008.163.025.24v5.62c0 .376.02.748.059 1.115l-.068-.027Zm16.415 23.677H14.153v-2.343h11.719v2.343ZM24.7 30.625c.646 0 1.172.526 1.172 1.172v1.172H14.153v-1.172c0-.646.526-1.172 1.172-1.172H24.7Zm-6.833-2.344.776-4.932a10.603 10.603 0 0 0 2.74 0l.775 4.932h-4.29Zm10.348-15.39c0 4.523-3.68 8.203-8.203 8.203s-8.203-3.68-8.203-8.203V7.03h16.407v5.86Zm0-8.204H11.81V2.345h16.407v2.344Zm2.328 9.292-.041.016c.038-.363.057-.731.057-1.104V7.03a2.347 2.347 0 0 1 2.344-2.343 2.346 2.346 0 0 1 2.344 2.343 7.447 7.447 0 0 1-4.704 6.948Z" fill="#3A3A3A"/>
</svg><svg fill="none" viewBox="0 0 40 40" id="features-02-icon" xmlns="http://www.w3.org/2000/svg">
    <g clip-path="url(#ha)">
        <path d="M37.857 14.174c-.527-1.634-.303-4.088-1.674-5.982-1.383-1.91-3.788-2.452-5.146-3.445-1.343-.983-2.593-3.12-4.853-3.858-2.197-.717-4.443.255-6.184.255-1.741 0-3.987-.972-6.184-.256-2.26.738-3.51 2.877-4.853 3.859-1.357.992-3.763 1.536-5.145 3.445-1.371 1.893-1.148 4.352-1.675 5.982C1.64 15.726 0 17.588 0 20c0 2.413 1.64 4.269 2.143 5.826.527 1.634.302 4.088 1.674 5.982 1.383 1.91 3.788 2.452 5.146 3.445 1.343.983 2.593 3.121 4.853 3.859 2.195.716 4.445-.256 6.184-.256 1.737 0 3.992.97 6.184.256 2.26-.738 3.51-2.876 4.853-3.859 1.357-.992 3.763-1.536 5.145-3.445 1.371-1.892 1.148-4.351 1.675-5.982C38.36 24.274 40 22.412 40 20c0-2.413-1.639-4.268-2.143-5.826Zm-2.973 10.691c-.615 1.905-.454 4.036-1.232 5.11-.789 1.09-2.86 1.586-4.46 2.756-1.58 1.156-2.689 2.99-3.978 3.41-1.22.398-3.206-.41-5.214-.41-2.022 0-3.989.81-5.214.41-1.289-.42-2.396-2.253-3.979-3.41-1.589-1.163-3.672-1.67-4.459-2.756-.775-1.07-.62-3.217-1.232-5.11-.6-1.854-1.991-3.46-1.991-4.865 0-1.406 1.39-3.006 1.991-4.865.615-1.904.454-4.036 1.232-5.11.788-1.088 2.862-1.587 4.46-2.756 1.586-1.16 2.687-2.988 3.978-3.41 1.218-.397 3.212.41 5.214.41 2.026 0 3.988-.81 5.214-.41 1.289.421 2.396 2.253 3.979 3.41 1.589 1.163 3.672 1.67 4.459 2.756.775 1.071.62 3.215 1.232 5.11.599 1.854 1.991 3.46 1.991 4.865 0 1.406-1.39 3.007-1.991 4.865Zm-7.685-9.88c.61.61.61 1.6 0 2.21l-7.821 7.82c-.61.61-1.6.61-2.21 0l-4.367-4.366a1.562 1.562 0 1 1 2.21-2.21l3.262 3.262 6.716-6.716c.61-.61 1.6-.61 2.21 0Z" fill="#3A3A3A"/>
    </g>
    <defs>
        <clipPath id="ha">
            <path fill="#fff" d="M0 0h40v40H0z"/>
        </clipPath>
    </defs>
</svg><svg fill="none" viewBox="0 0 40 40" id="features-03-icon" xmlns="http://www.w3.org/2000/svg">
    <g clip-path="url(#ia)">
        <path d="M36.899 20.735V2.52c0-.65-.527-1.177-1.177-1.177H4.197c-.65 0-1.177.527-1.177 1.177v19.667a3.562 3.562 0 0 0-1.613.667c-1.548 1.098-1.914 3.553-.618 5.068l5.3 6.425c3.281 3.84 6.766 4.31 11.947 4.31 4.446 0 6.434.02 10.308-.863l3.773-.903c.612.855 1.583 1.408 2.675 1.408h1.859c1.846 0 3.349-1.583 3.349-3.528V24.252c0-1.857-1.37-3.383-3.101-3.517Zm-5.29 2.42-1.567-.796a9.322 9.322 0 0 0-8.177-.132c-.714.28-2.272 1.224-3.08 1.192h-5.44a3.276 3.276 0 0 0-3.273 3.273v.858l-.03-.032-3.886-4.217a3.585 3.585 0 0 0-.783-.64V10.987h9.63v4.314c0 .65.527 1.176 1.176 1.176h7.425c.65 0 1.177-.527 1.177-1.176v-4.314h9.764v9.748c-1.374.106-2.52 1.09-2.935 2.42ZM17.357 10.987h5.071v3.137h-5.071v-3.137Zm17.19-2.353H24.78V3.696h9.764v4.938ZM22.426 3.696v4.938h-5.071V3.696h5.071Zm-7.424 0v4.938h-9.63V3.696h9.63Zm12.795 31.809c-3.58.82-5.735.786-9.72.786-4.863 0-7.213-.078-10.173-3.442l-5.3-6.425c-.922-1.2.748-2.617 1.82-1.528l3.885 4.217c1.027 1.083 2.32 1.68 3.912 1.714h10.77a1.177 1.177 0 1 0 0-2.353H12.426v-1.782a.92.92 0 0 1 .92-.92h5.44c1.225.088 2.994-.935 4.073-1.411a6.98 6.98 0 0 1 6.12.097l2.465 1.252v8.923l-3.645.872Zm9.849-.734c0 .648-.447 1.175-.996 1.175h-1.859c-.549 0-.995-.527-.995-1.175V24.252c0-.648.446-1.175.995-1.175h1.859c.549 0 .996.527.996 1.175v10.519Z" fill="#3A3A3A"/>
    </g>
    <defs>
        <clipPath id="ia">
            <path fill="#fff" d="M0 0h40v40H0z"/>
        </clipPath>
    </defs>
</svg><svg fill="none" viewBox="0 0 40 40" id="features-04-icon" xmlns="http://www.w3.org/2000/svg">
    <g clip-path="url(#ja)">
        <path d="M36.462 15.975C36.2 7.122 28.916 0 20 0S3.8 7.122 3.537 15.975L2.353 17.16v8.033l1.176 1.177v5.473a5.81 5.81 0 0 0 5.804 5.804h1.458A3.535 3.535 0 0 0 14.118 40h2.353a3.535 3.535 0 0 0 3.328-2.356l.201.003c5.681 0 10.435-4.048 11.528-9.412h3.077l3.042-3.042V17.16l-1.185-1.185ZM20 2.353c6.983 0 12.797 5.096 13.92 11.765h-2.392C30.435 8.754 25.681 4.706 20 4.706S9.565 8.754 8.472 14.118H6.079C7.203 7.449 13.017 2.353 20 2.353Zm9.114 11.765c-3.803-.012-6.49.22-8.704-3.018l-1.076-1.572-.924 1.666c-1.346 2.426-3.16 2.924-5.469 2.924h-2.055c1.048-4.055 4.737-7.06 9.114-7.06 4.378 0 8.067 3.005 9.114 7.06ZM8.235 25.882H6.37L4.706 24.22v-6.085l1.664-1.663h1.865v9.411Zm-2.353 5.961v-3.608H8.47a11.661 11.661 0 0 0 3.072 5.826c-.33.352-.587.77-.751 1.233H9.333a3.455 3.455 0 0 1-3.45-3.45Zm10.589 5.804h-2.353a1.178 1.178 0 0 1 0-2.353h2.353a1.178 1.178 0 0 1 0 2.353Zm12.94-11.765c0 5.19-4.221 9.412-9.411 9.412-.067 0-.136-.001-.203-.003a3.535 3.535 0 0 0-3.326-2.35c-2.416.005-2.378-.012-2.679.016a9.357 9.357 0 0 1-3.204-7.075v-9.411h2.353c2.082 0 4.618-.344 6.58-2.733 2.59 2.714 5.755 2.733 8.596 2.733h1.295v9.411Zm5.883-1.663-1.664 1.663h-1.865v-9.411h1.865l1.664 1.663v6.085Z" fill="#3A3A3A"/>
    </g>
    <defs>
        <clipPath id="ja">
            <path fill="#fff" d="M0 0h40v40H0z"/>
        </clipPath>
    </defs>
</svg><svg fill="none" viewBox="0 0 24 24" id="link-arrow-icon" xmlns="http://www.w3.org/2000/svg">
    <path d="m19.365 12.56-4.98 5a.79.79 0 0 1-.56.24c-.2 0-.4-.08-.56-.24a.797.797 0 0 1 0-1.14l3.62-3.64H5.205c-.44 0-.8-.36-.8-.8 0-.44.36-.8.8-.8h11.68l-3.62-3.64a.797.797 0 0 1 0-1.14c.32-.32.82-.32 1.14 0l4.98 5c.3.34.3.86-.02 1.16Z" fill="#000"/>
</svg><svg fill="none" viewBox="0 0 20 20" id="location-icon" xmlns="http://www.w3.org/2000/svg">
    <path fill-rule="evenodd" clip-rule="evenodd" d="M10.974 18.708c2.116-1.444 6.943-5.236 6.943-9.791a7.917 7.917 0 1 0-15.834 0c0 4.555 4.827 8.347 6.943 9.791a1.718 1.718 0 0 0 1.948 0ZM10 11.417a2.5 2.5 0 1 0 0-5 2.5 2.5 0 0 0 0 5Z" fill="#898989"/>
</svg><svg fill="none" viewBox="0 0 24 24" id="mobile-btn-close" xmlns="http://www.w3.org/2000/svg">
    <path fill-rule="evenodd" clip-rule="evenodd" d="M5.293 5.293a1 1 0 0 1 1.414 0L12 10.586l5.293-5.293a1 1 0 1 1 1.414 1.414L13.414 12l5.293 5.293a1 1 0 0 1-1.414 1.414L12 13.414l-5.293 5.293a1 1 0 0 1-1.414-1.414L10.586 12 5.293 6.707a1 1 0 0 1 0-1.414Z" fill="#6C7275"/>
</svg><svg fill="none" viewBox="0 0 18 14" id="mobile-btn-open" xmlns="http://www.w3.org/2000/svg">
    <path d="M1 1h16M1 7h16M1 13h16" stroke="#141718" stroke-width="1.5" stroke-linecap="round"/>
</svg><svg fill="none" viewBox="0 0 20 20" id="phone-icon" xmlns="http://www.w3.org/2000/svg">
    <path d="m13.43 13.067-.515.773c-.103.154-.239.286-.418.334-.588.155-2.147.225-4.521-2.15C5.6 9.65 5.67 8.09 5.825 7.503c.048-.18.18-.315.334-.418l.773-.516a1.253 1.253 0 0 0 .348-1.737l-1.46-2.19a1.253 1.253 0 0 0-1.537-.457l-.659.282c-.5.215-.908.6-1.152 1.086-.203.407-.36.836-.382 1.29-.068 1.432.246 4.96 4.176 8.89 3.93 3.93 7.458 4.244 8.89 4.176.454-.021.883-.179 1.29-.382a2.302 2.302 0 0 0 1.086-1.152l.282-.66c.238-.554.046-1.2-.456-1.535l-2.191-1.46a1.253 1.253 0 0 0-1.737.347Z" fill="#898989"/>
</svg><svg fill="none" viewBox="0 0 20 20" id="search-icon" xmlns="http://www.w3.org/2000/svg">
    <path d="M16.667 16.667 12.58 12.58m0 0a5.417 5.417 0 1 0-7.66-7.66 5.417 5.417 0 0 0 7.66 7.66Z" stroke="#333" stroke-width="1.8" stroke-linecap="round" stroke-linejoin="round"/>
</svg><svg fill="none" viewBox="0 0 24 24" id="send-icon" xmlns="http://www.w3.org/2000/svg">
    <path d="M20.782 3.217a.75.75 0 0 0-.787-.172l-16.5 6a.75.75 0 0 0 0 1.402l6.442 2.573 4.756-4.77 1.057 1.057-4.777 4.778 2.58 6.442a.75.75 0 0 0 .697.473.75.75 0 0 0 .69-.495l6-16.5a.75.75 0 0 0-.158-.788Z" fill="#fff"/>
</svg><svg fill="none" viewBox="0 0 24 24" id="share-icon" xmlns="http://www.w3.org/2000/svg">
    <path d="M18 16c-.788 0-1.5.31-2.034.807L8.91 12.7c.05-.23.09-.46.09-.7 0-.24-.04-.47-.09-.7l7.05-4.11c.54.5 1.25.81 2.04.81 1.66 0 3-1.34 3-3s-1.34-3-3-3-3 1.34-3 3c0 .24.04.47.09.7L8.04 9.81C7.5 9.31 6.79 9 6 9c-1.66 0-3 1.34-3 3s1.34 3 3 3c.79 0 1.5-.31 2.04-.81l7.048 4.118A2.984 2.984 0 0 0 15 19a3 3 0 1 0 3-3Z" fill="#fff"/>
</svg><svg fill="none" viewBox="0 0 24 24" id="slider-arrow-icon" xmlns="http://www.w3.org/2000/svg">
    <path d="M9.023 20c-.228 0-.568-.101-.682-.304-.455-.405-.455-.911 0-1.316l7.273-6.481-7.273-6.38c-.455-.304-.455-.911 0-1.215.34-.405 1.023-.405 1.364 0l7.954 7.088c.455.405.455.912 0 1.317l-7.954 7.088C9.59 19.9 9.25 20 9.023 20Z" fill="#fff"/>
</svg></svg>