<?xml version="1.0" encoding="utf-8"?><svg viewBox="0 0 40 40" xmlns="http://www.w3.org/2000/svg" xmlns:xlink="http://www.w3.org/1999/xlink"><style>:root>svg{display:none}:root>svg:target{display:block}</style><svg fill="none" viewBox="0 0 20 20" id="arrow-down" xmlns="http://www.w3.org/2000/svg">
    <path d="M15.833 7.5 10 13.334 4.167 7.5" stroke="#3A3A3A" stroke-width="1.8" stroke-linecap="round" stroke-linejoin="round"/>
</svg><svg fill="none" viewBox="0 0 24 24" id="card-link-arrow-right-icon" xmlns="http://www.w3.org/2000/svg">
    <path fill-rule="evenodd" clip-rule="evenodd" d="M14.47 5.47a.75.75 0 0 0 0 1.06l4.72 4.72H3a.75.75 0 0 0 0 1.5h16.19l-4.72 4.72a.75.75 0 1 0 1.06 1.06l6-6a.75.75 0 0 0 0-1.06l-6-6a.75.75 0 0 0-1.06 0Z" fill="#fff"/>
</svg><svg fill="none" viewBox="0 0 24 24" id="cart" xmlns="http://www.w3.org/2000/svg">
    <path d="M1 2.5h1.654c.479 0 .718 0 .912.087a1 1 0 0 1 .423.355c.119.177.16.413.242.884L4.609 6m0 0 .883 5.077c.179 1.03.269 1.546.534 1.917a2 2 0 0 0 .937.714c.428.157.949.107 1.99.006l9.661-.935c1.016-.098 1.524-.147 1.908-.376a2 2 0 0 0 .788-.867c.19-.405.19-.915.19-1.935v0c0-1.085 0-1.628-.208-2.047a2 2 0 0 0-.852-.877c-.413-.22-.955-.237-2.04-.269L4.61 6Z" stroke="#262F56" stroke-width="1.8" stroke-linecap="round" stroke-linejoin="round"/>
    <circle cx="8.5" cy="19" r="2" stroke="#262F56" stroke-width="1.8"/>
    <circle cx="18" cy="19" r="2" stroke="#262F56" stroke-width="1.8"/>
</svg><svg fill="none" viewBox="0 0 24 24" id="favorites" xmlns="http://www.w3.org/2000/svg">
    <path d="M12 21.054C-8 10 6-2 12 5.588 18-2 32 10 12 21.054Z" stroke="#262F56" stroke-width="1.8"/>
</svg><svg fill="none" viewBox="0 0 40 40" id="features-01-icon" xmlns="http://www.w3.org/2000/svg">
    <path d="M32.903 2.344c-.853 0-1.654.23-2.344.63V1.172C30.56.525 30.035 0 29.387 0h-18.75C9.99 0 9.465.525 9.465 1.172v1.817a4.657 4.657 0 0 0-2.368-.645A4.693 4.693 0 0 0 2.409 7.03a9.79 9.79 0 0 0 1.69 5.51c1.881 2.778 4.202 3.5 6.122 4.267a10.603 10.603 0 0 0 6.138 5.977l-.864 5.496h-.17a3.52 3.52 0 0 0-3.516 3.516v5.86h-1.172a1.172 1.172 0 0 0 0 2.343h18.75a1.172 1.172 0 0 0 0-2.344h-1.172v-5.86a3.52 3.52 0 0 0-3.515-3.515h-.17l-.864-5.496a10.604 10.604 0 0 0 6.143-5.988c1.814-.726 4.191-1.45 6.092-4.257a9.79 9.79 0 0 0 1.69-5.509 4.693 4.693 0 0 0-4.688-4.687ZM9.457 13.979A7.447 7.447 0 0 1 4.753 7.03a2.346 2.346 0 0 1 2.344-2.343A2.346 2.346 0 0 1 9.44 7.03c0 .083.008.163.025.24v5.62c0 .376.02.748.059 1.115l-.068-.027Zm16.415 23.677H14.153v-2.343h11.719v2.343ZM24.7 30.625c.646 0 1.172.526 1.172 1.172v1.172H14.153v-1.172c0-.646.526-1.172 1.172-1.172H24.7Zm-6.833-2.344.776-4.932a10.603 10.603 0 0 0 2.74 0l.775 4.932h-4.29Zm10.348-15.39c0 4.523-3.68 8.203-8.203 8.203s-8.203-3.68-8.203-8.203V7.03h16.407v5.86Zm0-8.204H11.81V2.345h16.407v2.344Zm2.328 9.292-.041.016c.038-.363.057-.731.057-1.104V7.03a2.347 2.347 0 0 1 2.344-2.343 2.346 2.346 0 0 1 2.344 2.343 7.447 7.447 0 0 1-4.704 6.948Z" fill="#3A3A3A"/>
</svg><svg fill="none" viewBox="0 0 40 40" id="features-02-icon" xmlns="http://www.w3.org/2000/svg">
    <g clip-path="url(#fa)">
        <path d="M37.857 14.174c-.527-1.634-.303-4.088-1.674-5.982-1.383-1.91-3.788-2.452-5.146-3.445-1.343-.983-2.593-3.12-4.853-3.858-2.197-.717-4.443.255-6.184.255-1.741 0-3.987-.972-6.184-.256-2.26.738-3.51 2.877-4.853 3.859-1.357.992-3.763 1.536-5.145 3.445-1.371 1.893-1.148 4.352-1.675 5.982C1.64 15.726 0 17.588 0 20c0 2.413 1.64 4.269 2.143 5.826.527 1.634.302 4.088 1.674 5.982 1.383 1.91 3.788 2.452 5.146 3.445 1.343.983 2.593 3.121 4.853 3.859 2.195.716 4.445-.256 6.184-.256 1.737 0 3.992.97 6.184.256 2.26-.738 3.51-2.876 4.853-3.859 1.357-.992 3.763-1.536 5.145-3.445 1.371-1.892 1.148-4.351 1.675-5.982C38.36 24.274 40 22.412 40 20c0-2.413-1.639-4.268-2.143-5.826Zm-2.973 10.691c-.615 1.905-.454 4.036-1.232 5.11-.789 1.09-2.86 1.586-4.46 2.756-1.58 1.156-2.689 2.99-3.978 3.41-1.22.398-3.206-.41-5.214-.41-2.022 0-3.989.81-5.214.41-1.289-.42-2.396-2.253-3.979-3.41-1.589-1.163-3.672-1.67-4.459-2.756-.775-1.07-.62-3.217-1.232-5.11-.6-1.854-1.991-3.46-1.991-4.865 0-1.406 1.39-3.006 1.991-4.865.615-1.904.454-4.036 1.232-5.11.788-1.088 2.862-1.587 4.46-2.756 1.586-1.16 2.687-2.988 3.978-3.41 1.218-.397 3.212.41 5.214.41 2.026 0 3.988-.81 5.214-.41 1.289.421 2.396 2.253 3.979 3.41 1.589 1.163 3.672 1.67 4.459 2.756.775 1.071.62 3.215 1.232 5.11.599 1.854 1.991 3.46 1.991 4.865 0 1.406-1.39 3.007-1.991 4.865Zm-7.685-9.88c.61.61.61 1.6 0 2.21l-7.821 7.82c-.61.61-1.6.61-2.21 0l-4.367-4.366a1.562 1.562 0 1 1 2.21-2.21l3.262 3.262 6.716-6.716c.61-.61 1.6-.61 2.21 0Z" fill="#3A3A3A"/>
    </g>
    <defs>
        <clipPath id="fa">
            <path fill="#fff" d="M0 0h40v40H0z"/>
        </clipPath>
    </defs>
</svg><svg fill="none" viewBox="0 0 40 40" id="features-03-icon" xmlns="http://www.w3.org/2000/svg">
    <g clip-path="url(#ga)">
        <path d="M36.899 20.735V2.52c0-.65-.527-1.177-1.177-1.177H4.197c-.65 0-1.177.527-1.177 1.177v19.667a3.562 3.562 0 0 0-1.613.667c-1.548 1.098-1.914 3.553-.618 5.068l5.3 6.425c3.281 3.84 6.766 4.31 11.947 4.31 4.446 0 6.434.02 10.308-.863l3.773-.903c.612.855 1.583 1.408 2.675 1.408h1.859c1.846 0 3.349-1.583 3.349-3.528V24.252c0-1.857-1.37-3.383-3.101-3.517Zm-5.29 2.42-1.567-.796a9.322 9.322 0 0 0-8.177-.132c-.714.28-2.272 1.224-3.08 1.192h-5.44a3.276 3.276 0 0 0-3.273 3.273v.858l-.03-.032-3.886-4.217a3.585 3.585 0 0 0-.783-.64V10.987h9.63v4.314c0 .65.527 1.176 1.176 1.176h7.425c.65 0 1.177-.527 1.177-1.176v-4.314h9.764v9.748c-1.374.106-2.52 1.09-2.935 2.42ZM17.357 10.987h5.071v3.137h-5.071v-3.137Zm17.19-2.353H24.78V3.696h9.764v4.938ZM22.426 3.696v4.938h-5.071V3.696h5.071Zm-7.424 0v4.938h-9.63V3.696h9.63Zm12.795 31.809c-3.58.82-5.735.786-9.72.786-4.863 0-7.213-.078-10.173-3.442l-5.3-6.425c-.922-1.2.748-2.617 1.82-1.528l3.885 4.217c1.027 1.083 2.32 1.68 3.912 1.714h10.77a1.177 1.177 0 1 0 0-2.353H12.426v-1.782a.92.92 0 0 1 .92-.92h5.44c1.225.088 2.994-.935 4.073-1.411a6.98 6.98 0 0 1 6.12.097l2.465 1.252v8.923l-3.645.872Zm9.849-.734c0 .648-.447 1.175-.996 1.175h-1.859c-.549 0-.995-.527-.995-1.175V24.252c0-.648.446-1.175.995-1.175h1.859c.549 0 .996.527.996 1.175v10.519Z" fill="#3A3A3A"/>
    </g>
    <defs>
        <clipPath id="ga">
            <path fill="#fff" d="M0 0h40v40H0z"/>
        </clipPath>
    </defs>
</svg><svg fill="none" viewBox="0 0 40 40" id="features-04-icon" xmlns="http://www.w3.org/2000/svg">
    <g clip-path="url(#ha)">
        <path d="M36.462 15.975C36.2 7.122 28.916 0 20 0S3.8 7.122 3.537 15.975L2.353 17.16v8.033l1.176 1.177v5.473a5.81 5.81 0 0 0 5.804 5.804h1.458A3.535 3.535 0 0 0 14.118 40h2.353a3.535 3.535 0 0 0 3.328-2.356l.201.003c5.681 0 10.435-4.048 11.528-9.412h3.077l3.042-3.042V17.16l-1.185-1.185ZM20 2.353c6.983 0 12.797 5.096 13.92 11.765h-2.392C30.435 8.754 25.681 4.706 20 4.706S9.565 8.754 8.472 14.118H6.079C7.203 7.449 13.017 2.353 20 2.353Zm9.114 11.765c-3.803-.012-6.49.22-8.704-3.018l-1.076-1.572-.924 1.666c-1.346 2.426-3.16 2.924-5.469 2.924h-2.055c1.048-4.055 4.737-7.06 9.114-7.06 4.378 0 8.067 3.005 9.114 7.06ZM8.235 25.882H6.37L4.706 24.22v-6.085l1.664-1.663h1.865v9.411Zm-2.353 5.961v-3.608H8.47a11.661 11.661 0 0 0 3.072 5.826c-.33.352-.587.77-.751 1.233H9.333a3.455 3.455 0 0 1-3.45-3.45Zm10.589 5.804h-2.353a1.178 1.178 0 0 1 0-2.353h2.353a1.178 1.178 0 0 1 0 2.353Zm12.94-11.765c0 5.19-4.221 9.412-9.411 9.412-.067 0-.136-.001-.203-.003a3.535 3.535 0 0 0-3.326-2.35c-2.416.005-2.378-.012-2.679.016a9.357 9.357 0 0 1-3.204-7.075v-9.411h2.353c2.082 0 4.618-.344 6.58-2.733 2.59 2.714 5.755 2.733 8.596 2.733h1.295v9.411Zm5.883-1.663-1.664 1.663h-1.865v-9.411h1.865l1.664 1.663v6.085Z" fill="#3A3A3A"/>
    </g>
    <defs>
        <clipPath id="ha">
            <path fill="#fff" d="M0 0h40v40H0z"/>
        </clipPath>
    </defs>
</svg><svg fill="none" viewBox="0 0 24 24" id="link-arrow-icon" xmlns="http://www.w3.org/2000/svg">
    <path d="m19.365 12.56-4.98 5a.79.79 0 0 1-.56.24c-.2 0-.4-.08-.56-.24a.797.797 0 0 1 0-1.14l3.62-3.64H5.205c-.44 0-.8-.36-.8-.8 0-.44.36-.8.8-.8h11.68l-3.62-3.64a.797.797 0 0 1 0-1.14c.32-.32.82-.32 1.14 0l4.98 5c.3.34.3.86-.02 1.16Z" fill="#000"/>
</svg><svg fill="none" viewBox="0 0 20 20" id="location-icon" xmlns="http://www.w3.org/2000/svg">
    <path clip-rule="evenodd" d="M10.974 18.541c2.116-1.443 6.943-5.236 6.943-9.791a7.917 7.917 0 1 0-15.834 0c0 4.555 4.827 8.348 6.943 9.791a1.718 1.718 0 0 0 1.948 0ZM10 11.25a2.5 2.5 0 1 0 0-5 2.5 2.5 0 0 0 0 5Z"/>
</svg><svg fill="none" viewBox="0 0 24 24" id="mobile-btn-close" xmlns="http://www.w3.org/2000/svg">
    <path fill-rule="evenodd" clip-rule="evenodd" d="M5.293 5.293a1 1 0 0 1 1.414 0L12 10.586l5.293-5.293a1 1 0 1 1 1.414 1.414L13.414 12l5.293 5.293a1 1 0 0 1-1.414 1.414L12 13.414l-5.293 5.293a1 1 0 0 1-1.414-1.414L10.586 12 5.293 6.707a1 1 0 0 1 0-1.414Z" fill="#6C7275"/>
</svg><svg fill="none" viewBox="0 0 18 14" id="mobile-btn-open" xmlns="http://www.w3.org/2000/svg">
    <path d="M1 1h16M1 7h16M1 13h16" stroke="#141718" stroke-width="1.5" stroke-linecap="round"/>
</svg><svg fill="none" viewBox="0 0 20 20" id="phone-icon" xmlns="http://www.w3.org/2000/svg">
    <path d="m13.43 13.067-.515.773c-.103.154-.239.286-.418.334-.588.155-2.147.225-4.521-2.15C5.6 9.65 5.67 8.09 5.825 7.503c.048-.18.18-.315.334-.418l.773-.516a1.253 1.253 0 0 0 .348-1.737l-1.46-2.19a1.253 1.253 0 0 0-1.537-.457l-.659.282c-.5.215-.908.6-1.152 1.086-.203.407-.36.836-.382 1.29-.068 1.432.246 4.96 4.176 8.89 3.93 3.93 7.458 4.244 8.89 4.176.454-.021.883-.179 1.29-.382a2.302 2.302 0 0 0 1.086-1.152l.282-.66c.238-.554.046-1.2-.456-1.535l-2.191-1.46a1.253 1.253 0 0 0-1.737.347Z" fill="#898989"/>
</svg><svg fill="none" viewBox="0 0 20 20" id="search-icon" xmlns="http://www.w3.org/2000/svg">
    <path d="M16.667 16.667 12.58 12.58m0 0a5.417 5.417 0 1 0-7.66-7.66 5.417 5.417 0 0 0 7.66 7.66Z" stroke="#333" stroke-width="1.8" stroke-linecap="round" stroke-linejoin="round"/>
</svg><svg fill="none" viewBox="0 0 24 24" id="send-icon" xmlns="http://www.w3.org/2000/svg">
    <path d="M20.782 3.217a.75.75 0 0 0-.787-.172l-16.5 6a.75.75 0 0 0 0 1.402l6.442 2.573 4.756-4.77 1.057 1.057-4.777 4.778 2.58 6.442a.75.75 0 0 0 .697.473.75.75 0 0 0 .69-.495l6-16.5a.75.75 0 0 0-.158-.788Z" fill="#fff"/>
</svg><svg fill="none" viewBox="0 0 24 24" id="share-icon" xmlns="http://www.w3.org/2000/svg">
    <path d="M18 16c-.788 0-1.5.31-2.034.807L8.91 12.7c.05-.23.09-.46.09-.7 0-.24-.04-.47-.09-.7l7.05-4.11c.54.5 1.25.81 2.04.81 1.66 0 3-1.34 3-3s-1.34-3-3-3-3 1.34-3 3c0 .24.04.47.09.7L8.04 9.81C7.5 9.31 6.79 9 6 9c-1.66 0-3 1.34-3 3s1.34 3 3 3c.79 0 1.5-.31 2.04-.81l7.048 4.118A2.984 2.984 0 0 0 15 19a3 3 0 1 0 3-3Z" fill="#fff"/>
</svg><svg fill="none" viewBox="0 0 24 24" id="slider-arrow-icon" xmlns="http://www.w3.org/2000/svg">
    <path d="m9 5 7 7-7 7" stroke="#fff" stroke-width="1.8" stroke-linecap="round" stroke-linejoin="round"/>
</svg></svg>