<svg width="40" height="40" viewBox="0 0 40 40" fill="none" xmlns="http://www.w3.org/2000/svg">
<g clip-path="url(#clip0_8494_310)">
<path d="M19.0039 0H21.0352L22.2266 0.117188L23.125 0.234375L24.0039 0.390625L24.9414 0.605469L25.8594 0.859375L26.7969 1.17188L27.6953 1.52344L28.3984 1.83594L28.8867 2.07031L29.3945 2.32422L29.8438 2.57812L30.3516 2.87109L30.7227 3.10547L31.0547 3.32031L31.4258 3.57422L31.7773 3.82812L32.1484 4.10156L32.4609 4.35547L32.6367 4.49219L32.8906 4.70703L33.1641 4.94141L33.3594 5.11719L33.5156 5.25391L33.8086 5.52734L34.0039 5.72266L34.1602 5.85938L34.2578 5.95703V5.99609H34.2969L34.4336 6.15234L34.6289 6.34766L34.7656 6.50391L35 6.75781L35.1758 6.97266L35.3711 7.1875L35.5859 7.46094L35.8203 7.75391L36.0156 8.00781L36.2695 8.35938L36.5039 8.69141L36.7383 9.04297L37.0117 9.47266L37.2461 9.86328L37.4805 10.2734L37.7148 10.7031L37.8906 11.0352L38.1055 11.4844L38.3984 12.1289L38.7109 12.9102L38.8867 13.3984L39.1211 14.1016L39.375 15L39.6094 16.0156L39.7656 16.8945L39.9023 17.9883L40 19.082V20.7812L39.9023 22.0117L39.7852 22.9492L39.668 23.6719L39.5703 24.1797L39.3945 24.9023L39.2578 25.4297L39.082 26.0156L38.8477 26.7188L38.5742 27.4414L38.3594 27.9492L38.0664 28.5938L37.5977 29.5312L37.3242 30L37.0898 30.4102L36.6602 31.0742L36.4062 31.4453L36.1523 31.7969L35.9961 32.0117L35.7812 32.2852L35.5078 32.6367L35.293 32.9102L35.0391 33.2031L34.8047 33.457L34.668 33.6133L34.375 33.9258L33.7695 34.5312L33.6133 34.668L33.3203 34.9414L33.1055 35.1172L32.8711 35.332L32.6758 35.4883L32.3633 35.7422L32.1094 35.9375L31.7383 36.2109L31.4062 36.4453L30.8789 36.7969L30.5469 37.0117L30.1172 37.2656L29.6094 37.5586L29.082 37.832L28.4961 38.125L27.8906 38.3984L27.0117 38.75L26.3477 38.9844L25.5273 39.2383L24.6289 39.4727L23.7109 39.668L22.8711 39.8047L21.9336 39.9219L21.2305 40H18.7695L17.9102 39.9023L16.9922 39.7852L16.2891 39.668L15.4492 39.4922L14.668 39.2969L13.9453 39.082L13.0273 38.7695L12.3828 38.5156L11.7969 38.2617L11.2109 37.9883L10.7812 37.7734L10.4102 37.5781L9.90234 37.2852L9.47266 37.0312L8.96484 36.6992L8.67188 36.5039L8.33984 36.2695L7.96875 35.9961L7.71484 35.8008L7.40234 35.5469L7.1875 35.3711L6.93359 35.1562L6.54297 34.8047L6.30859 34.5898L6.05469 34.3555L5.46875 33.7695L5.33203 33.6133L5.03906 33.3008L4.90234 33.1445L4.6875 32.8906L4.41406 32.5391L4.17969 32.2461L3.98438 31.9922L3.73047 31.6406L3.49609 31.3086L3.22266 30.8984L2.94922 30.4688L2.77344 30.1758L2.46094 29.6289L2.26562 29.2773L2.10938 28.9648L1.79688 28.3203L1.52344 27.6953L1.21094 26.8945L0.898438 25.9766L0.664062 25.1562L0.46875 24.375L0.3125 23.5938L0.175781 22.7148L0.078125 21.8945L0 20.9961V18.9453L0.117188 17.7539L0.214844 16.9922L0.351562 16.1914L0.527344 15.3906L0.703125 14.6875L0.917969 13.9648L1.23047 13.0469L1.58203 12.168L1.95312 11.3477L2.28516 10.6836L2.51953 10.2539L2.79297 9.78516L2.96875 9.49219L3.26172 9.04297L3.39844 8.82812L3.86719 8.16406L4.04297 7.92969L4.25781 7.65625L4.53125 7.30469L4.70703 7.10938L4.88281 6.89453L5.07812 6.67969L5.21484 6.52344L5.44922 6.26953L5.58594 6.13281L5.72266 5.97656L6.09375 5.60547L6.25 5.46875L6.46484 5.25391L6.62109 5.11719L6.89453 4.88281L7.08984 4.70703L7.30469 4.53125L7.57812 4.31641L7.87109 4.08203L8.18359 3.84766L8.51562 3.61328L8.90625 3.33984L9.21875 3.14453L9.55078 2.92969L9.88281 2.73438L10.293 2.5L10.7227 2.26562L11.0938 2.07031L11.6406 1.81641L12.2461 1.54297L12.9883 1.25L13.7695 0.976562L14.3359 0.800781L15.1367 0.585938L15.8984 0.410156L16.7383 0.253906L17.7148 0.117188L18.7305 0.0195312L19.0039 0Z" fill="#CAC4BF"/>
<path d="M19.0039 0H21.0352L22.2266 0.117188L23.125 0.234375L24.0039 0.390625L24.9414 0.605469L25.8594 0.859375L26.7969 1.17188L27.6953 1.52344L28.3984 1.83594L28.8867 2.07031L29.3945 2.32422L29.8438 2.57812L30.3516 2.87109L30.7227 3.10547L31.0547 3.32031L31.4258 3.57422L31.7773 3.82812L32.1484 4.10156L32.4609 4.35547L32.6367 4.49219L32.8906 4.70703L33.1641 4.94141L33.3594 5.11719L33.5156 5.25391L33.8086 5.52734L34.0039 5.72266L34.1602 5.85938L34.2578 5.95703V5.99609H34.2969L34.4336 6.15234L34.6289 6.34766L34.7656 6.50391L35 6.75781L35.1758 6.97266L35.3711 7.1875L35.5859 7.46094L35.8203 7.75391L36.0156 8.00781L36.2695 8.35938L36.5039 8.69141L36.7383 9.04297L37.0117 9.47266L37.2461 9.86328L37.4805 10.2734L37.7148 10.7031L37.8906 11.0352L38.1055 11.4844L38.3984 12.1289L38.7109 12.9102L38.8867 13.3984L39.1211 14.1016L39.375 15L39.6094 16.0156L39.7656 16.8945L39.9023 17.9883L40 19.082V20.7812L39.9023 22.0117L39.7852 22.9492L39.668 23.6719L39.5703 24.1797L39.3945 24.9023L39.2578 25.4297L39.082 26.0156L38.8477 26.7188L38.5742 27.4414L38.3594 27.9492L38.0664 28.5938L37.5977 29.5312L37.3242 30L37.0898 30.4102L36.6602 31.0742L36.4062 31.4453L36.1523 31.7969L35.9961 32.0117L35.7812 32.2852L35.5078 32.6367L35.4102 32.7734L35.3711 32.7148L35.1367 31.8945L34.9023 31.1914L34.6289 30.4883L34.4141 30L34.1016 29.3555L33.8477 28.8672L33.5938 28.4375L33.2812 27.9297L32.9883 27.5L32.793 27.2266L32.4805 26.8164L32.2656 26.543L32.0508 26.2891L31.8164 26.0156L31.543 25.7227L31.3086 25.4688L31.0547 25.2148L30.8984 25.0781L30.7227 24.9023L30.5664 24.7656L30.3516 24.5703L30.1367 24.3945L29.8047 24.1211L29.4336 23.8477L29.082 23.5938L28.5547 23.2422L28.1445 22.9883L27.7734 22.7734L27.3438 22.5391L26.6016 22.168L25.8789 21.8555L25.2148 21.6016L24.5898 21.3867L24.6289 21.3086L24.9414 21.0938L25.4492 20.6641L25.6836 20.4492L25.8398 20.3125L26.1328 20L26.3672 19.7266L26.6406 19.375L26.875 19.043L27.1094 18.6719L27.3047 18.3203L27.5586 17.793L27.7734 17.2266L27.9492 16.6602L28.1055 15.957L28.2031 15.2539L28.2227 14.9805V13.9844L28.1641 13.3398L28.0859 12.8906L27.9492 12.3047L27.7539 11.6797L27.5391 11.1523L27.3633 10.7617L27.1289 10.332L26.875 9.92188L26.6016 9.53125L26.3477 9.21875L26.1719 9.00391L25.8789 8.69141L25.6055 8.41797L25.4492 8.28125L25.1953 8.06641L24.8242 7.79297L24.4141 7.51953L24.082 7.32422L23.6523 7.08984L23.1445 6.85547L22.6758 6.67969L22.3242 6.5625L21.6992 6.40625L20.9961 6.28906L20.6055 6.25H19.5312L18.9258 6.30859L18.3398 6.40625L17.832 6.52344L17.3242 6.67969L16.9141 6.83594L16.5039 7.01172L16.1328 7.1875L15.7812 7.38281L15.4102 7.61719L15.0586 7.87109L14.7852 8.08594L14.5312 8.30078L14.2969 8.51562L13.8672 8.94531L13.6914 9.16016L13.4766 9.41406L13.3203 9.62891L13.0078 10.0977L12.832 10.3906L12.5195 10.9961L12.2656 11.6211L12.0508 12.2656L11.9336 12.7344L11.8359 13.2617L11.7773 13.7695L11.7578 14.0234V14.7852L11.8164 15.5078L11.9141 16.1328L12.0703 16.7578L12.2656 17.3438L12.4609 17.8125L12.6953 18.3008L12.9102 18.6914L13.1055 19.0039L13.3789 19.3945L13.5742 19.6484L13.8086 19.9219L13.9844 20.1172L14.2188 20.3711L14.5117 20.6445L14.7266 20.8203L14.9609 21.0156L15.332 21.2891L15.4297 21.3477L15.3906 21.3867L14.6289 21.6602L13.9258 21.9336L13.2227 22.2461L12.5195 22.5977L12.0703 22.8516L11.6406 23.1055L11.3086 23.3203L10.8789 23.6133L10.5273 23.8672L10.2734 24.0625L9.96094 24.3164L9.74609 24.4922L9.47266 24.7266L9.16016 25.0195L8.92578 25.2344L8.55469 25.6055L8.41797 25.7617L8.24219 25.9375L8.10547 26.0938L7.92969 26.2891L7.77344 26.4844L7.57812 26.7188L7.34375 27.0312L7.07031 27.4023L6.67969 27.9883L6.42578 28.3984L6.19141 28.8086L5.99609 29.1602L5.80078 29.5312L5.54688 30.0781L5.33203 30.5859L5.07812 31.2695L4.84375 31.9727L4.60938 32.7344L4.53125 32.6953L4.33594 32.4414L4.12109 32.168L3.92578 31.9141L3.69141 31.582L3.4375 31.2305L3.22266 30.8984L2.94922 30.4688L2.77344 30.1758L2.46094 29.6289L2.26562 29.2773L2.10938 28.9648L1.79688 28.3203L1.52344 27.6953L1.21094 26.8945L0.898438 25.9766L0.664062 25.1562L0.46875 24.375L0.3125 23.5938L0.175781 22.7148L0.078125 21.8945L0 20.9961V18.9453L0.117188 17.7539L0.214844 16.9922L0.351562 16.1914L0.527344 15.3906L0.703125 14.6875L0.917969 13.9648L1.23047 13.0469L1.58203 12.168L1.95312 11.3477L2.28516 10.6836L2.51953 10.2539L2.79297 9.78516L2.96875 9.49219L3.26172 9.04297L3.39844 8.82812L3.86719 8.16406L4.04297 7.92969L4.25781 7.65625L4.53125 7.30469L4.70703 7.10938L4.88281 6.89453L5.07812 6.67969L5.21484 6.52344L5.44922 6.26953L5.58594 6.13281L5.72266 5.97656L6.09375 5.60547L6.25 5.46875L6.46484 5.25391L6.62109 5.11719L6.89453 4.88281L7.08984 4.70703L7.30469 4.53125L7.57812 4.31641L7.87109 4.08203L8.18359 3.84766L8.51562 3.61328L8.90625 3.33984L9.21875 3.14453L9.55078 2.92969L9.88281 2.73438L10.293 2.5L10.7227 2.26562L11.0938 2.07031L11.6406 1.81641L12.2461 1.54297L12.9883 1.25L13.7695 0.976562L14.3359 0.800781L15.1367 0.585938L15.8984 0.410156L16.7383 0.253906L17.7148 0.117188L18.7305 0.0195312L19.0039 0Z" fill="#F3EEEA"/>
</g>
<defs>
<clipPath id="clip0_8494_310">
<rect width="40" height="40" fill="white"/>
</clipPath>
</defs>
</svg>
