<svg width="24" height="24" viewBox="0 0 24 24" fill="none" xmlns="http://www.w3.org/2000/svg">
<path d="M8.3991 14.9064C8.00448 14.9064 7.70852 14.9064 7.41256 14.7094C6.91928 14.5123 6.42601 14.1182 6.03139 13.7241C5.63677 13.2315 5.53812 12.5419 5.34081 11.4581L4.55157 6.53202L4.15695 4.36453C4.15695 4.16749 4.0583 3.87192 4.0583 3.7734C3.95964 3.7734 3.76233 3.7734 3.46637 3.7734H1.88789C1.39462 3.7734 1 3.37931 1 2.8867C1 2.39409 1.39462 2 1.88789 2H3.56502C4.15695 2 4.45291 2 4.84753 2.19704C5.1435 2.29557 5.43946 2.59113 5.63677 2.8867C5.83408 3.18227 5.83408 3.47783 5.93274 4.06897L6.2287 5.5468L19.1525 5.94089C20.3363 5.94089 20.9283 6.03941 21.5202 6.33498C22.0135 6.63054 22.5067 7.02463 22.704 7.61576C23 8.2069 23 8.89655 23 9.9803C23 11.064 23 11.6552 22.704 12.2463C22.5067 12.7389 22.1121 13.2315 21.6188 13.5271C21.0269 13.8227 20.435 13.9212 19.3498 14.0197L9.78027 14.8079C9.287 14.9064 8.79372 14.9064 8.3991 14.9064ZM6.52466 7.22168L7.21525 11.1626C7.3139 11.9507 7.41256 12.4433 7.60987 12.6404C7.70852 12.8374 7.90583 12.936 8.10314 13.0345C8.30045 13.133 8.79372 13.0345 9.68161 13.0345L19.2511 12.1478C20.0404 12.0493 20.5336 12.0493 20.7309 11.8522C20.9283 11.7537 21.0269 11.5567 21.1256 11.3596C21.2242 11.1626 21.2242 10.67 21.2242 9.78325C21.2242 8.89655 21.2242 8.40394 21.1256 8.2069C21.0269 8.00985 20.8296 7.81281 20.6323 7.71429C20.435 7.61576 19.843 7.61576 19.0538 7.51724L6.52466 7.22168Z" fill="#262F56"/>
<path d="M9.28701 22.0001C7.70854 22.0001 6.42603 20.7193 6.42603 19.1429C6.42603 17.5666 7.70854 16.2858 9.28701 16.2858C10.8655 16.2858 12.148 17.5666 12.148 19.1429C12.148 20.7193 10.8655 22.0001 9.28701 22.0001ZM9.28701 18.0592C8.69508 18.0592 8.20181 18.5518 8.20181 19.1429C8.20181 19.734 8.69508 20.2267 9.28701 20.2267C9.87894 20.2267 10.3722 19.734 10.3722 19.1429C10.3722 18.5518 9.87894 18.0592 9.28701 18.0592Z" fill="#262F56"/>
<path d="M18.6592 22.0001C17.0807 22.0001 15.7982 20.7193 15.7982 19.1429C15.7982 17.5666 17.0807 16.2858 18.6592 16.2858C20.2377 16.2858 21.5202 17.5666 21.5202 19.1429C21.5202 20.7193 20.2377 22.0001 18.6592 22.0001ZM18.6592 18.0592C18.0673 18.0592 17.574 18.5518 17.574 19.1429C17.574 19.734 18.0673 20.2267 18.6592 20.2267C19.2511 20.2267 19.7444 19.734 19.7444 19.1429C19.7444 18.5518 19.2511 18.0592 18.6592 18.0592Z" fill="#262F56"/>
</svg>
