<svg width="20" height="20" viewBox="0 0 20 20" fill="none" xmlns="http://www.w3.org/2000/svg">
<path fill-rule="evenodd" clip-rule="evenodd" d="M10.974 18.708C13.0898 17.2644 17.9167 13.4716 17.9167 8.91667C17.9167 4.54441 14.3723 1 10 1C5.62775 1 2.08333 4.54441 2.08333 8.91667C2.08333 13.4716 6.91025 17.2644 9.02596 18.708C9.61759 19.1117 10.3824 19.1117 10.974 18.708ZM10 11.4167C11.3807 11.4167 12.5 10.2974 12.5 8.91667C12.5 7.53595 11.3807 6.41667 10 6.41667C8.61929 6.41667 7.5 7.53595 7.5 8.91667C7.5 10.2974 8.61929 11.4167 10 11.4167Z" fill="#898989"/>
</svg>
