<svg width="32" height="32" viewBox="0 0 32 32" fill="none" xmlns="http://www.w3.org/2000/svg">
<path opacity="0.971" fill-rule="evenodd" clip-rule="evenodd" d="M32 0.192589C32 10.732 32 21.2716 32 31.811C31.9136 31.893 31.8095 31.9454 31.6875 31.9685C25.4167 32.0105 19.1458 32.0105 12.875 31.9685C12.7042 31.9434 12.5897 31.8489 12.5312 31.6851C12.5 31.0136 12.4896 30.3417 12.5 29.6695C10.5833 29.6695 8.66669 29.6695 6.75 29.6695C6.75 30.1524 6.75 30.6353 6.75 31.1182C7.1875 31.1182 7.625 31.1182 8.0625 31.1182C8.0625 31.3701 8.0625 31.6221 8.0625 31.874C6.97919 31.874 5.89583 31.874 4.8125 31.874C4.8125 31.6221 4.8125 31.3701 4.8125 31.1182C5.1875 31.1182 5.5625 31.1182 5.9375 31.1182C5.9375 30.6353 5.9375 30.1524 5.9375 29.6695C5.41501 29.6487 4.89417 29.6697 4.375 29.7325C4.16243 30.4067 3.94368 31.0785 3.71875 31.748C3.6875 31.7795 3.65625 31.811 3.625 31.8425C2.95833 31.8845 2.29167 31.8845 1.625 31.8425C1.56774 31.819 1.51565 31.7875 1.46875 31.748C1.3793 31.0601 1.34805 30.3673 1.375 29.6695C0.735481 29.684 0.277146 29.4111 0 28.8507C0 27.738 0 26.6253 0 25.5125C0.0818727 25.3907 0.165206 25.2647 0.25 25.1346C0.165206 25.0046 0.0818727 24.8786 0 24.7567C0 24.1269 0 23.497 0 22.8672C0.254113 21.8762 0.858281 21.2044 1.8125 20.8517C1.64589 19.3195 1.47922 17.7869 1.3125 16.2538C1.40868 15.3063 1.90868 14.6869 2.8125 14.3957C3.85114 14.3059 4.89281 14.2744 5.9375 14.3012C5.9375 12.3487 5.9375 10.3961 5.9375 8.44362C4.93728 8.45413 3.93728 8.44362 2.9375 8.41212C2.72492 8.32898 2.64158 8.17152 2.6875 7.93974C2.91616 6.19015 3.17657 4.44757 3.46875 2.71199C3.52516 2.63632 3.59808 2.58382 3.6875 2.55452C5.47917 2.51253 7.27081 2.51253 9.0625 2.55452C9.11975 2.57809 9.17188 2.60959 9.21875 2.649C9.52594 4.4273 9.80719 6.21187 10.0625 8.00272C10.0402 8.20352 9.93606 8.34001 9.75 8.41212C8.75019 8.44362 7.75019 8.45413 6.75 8.44362C6.75 10.3961 6.75 12.3487 6.75 14.3012C8.66669 14.3012 10.5833 14.3012 12.5 14.3012C12.4896 9.64027 12.5 4.97939 12.5312 0.318559C12.5603 0.228439 12.6124 0.154957 12.6875 0.0981115C19.0173 -0.00643281 25.3506 -0.0274282 31.6875 0.0351265C31.8095 0.0581879 31.9136 0.110675 32 0.192589Z" fill="#040302"/>
<path fill-rule="evenodd" clip-rule="evenodd" d="M13.3125 0.822449C19.2917 0.822449 25.2708 0.822449 31.25 0.822449C31.25 1.59926 31.25 2.37608 31.25 3.15289C25.2708 3.15289 19.2917 3.15289 13.3125 3.15289C13.3125 2.37608 13.3125 1.59926 13.3125 0.822449Z" fill="#E89F71"/>
<path fill-rule="evenodd" clip-rule="evenodd" d="M4.125 3.34182C4.86429 3.29984 5.61429 3.27885 6.375 3.27884C7.147 3.2789 7.897 3.32089 8.625 3.40481C7.12969 3.34249 5.62967 3.32149 4.125 3.34182Z" fill="#6D706F"/>
<path fill-rule="evenodd" clip-rule="evenodd" d="M4.125 3.34182C5.62967 3.32149 7.12969 3.34249 8.625 3.40481C8.83 4.76708 9.0175 6.13176 9.1875 7.49883C7.31362 7.6243 5.41781 7.66631 3.5 7.6248C3.68029 6.18479 3.88862 4.75713 4.125 3.34182Z" fill="#E7E7E7"/>
<path fill-rule="evenodd" clip-rule="evenodd" d="M13.3125 3.90869C16.1875 3.90869 19.0625 3.90869 21.9375 3.90869C21.9375 9.2204 21.9375 14.5322 21.9375 19.8439C20.8125 19.8439 19.6875 19.8439 18.5625 19.8439C18.6369 18.676 18.741 17.5108 18.875 16.3482C18.8897 15.6012 18.5772 15.0344 17.9375 14.6476C17.6594 14.5052 17.3677 14.4002 17.0625 14.3327C15.8127 14.3012 14.5627 14.2907 13.3125 14.3012C13.3125 10.837 13.3125 7.37286 13.3125 3.90869Z" fill="#E89F71"/>
<path fill-rule="evenodd" clip-rule="evenodd" d="M22.625 3.90869C25.5 3.90869 28.375 3.90869 31.25 3.90869C31.25 9.2204 31.25 14.5322 31.25 19.8439C28.375 19.8439 25.5 19.8439 22.625 19.8439C22.625 14.5322 22.625 9.2204 22.625 3.90869Z" fill="#E89F71"/>
<path fill-rule="evenodd" clip-rule="evenodd" d="M9.1875 7.49884C9.244 7.5435 9.26481 7.60648 9.25 7.6878C7.32263 7.70864 5.40597 7.68767 3.5 7.62481C5.41781 7.66632 7.31363 7.62431 9.1875 7.49884Z" fill="#606261"/>
<path fill-rule="evenodd" clip-rule="evenodd" d="M19.6875 9.70331C19.6875 10.5851 19.6875 11.4669 19.6875 12.3487C19.8958 12.3487 20.1042 12.3487 20.3125 12.3487C20.3125 11.4669 20.3125 10.5851 20.3125 9.70331C20.3747 10.595 20.3955 11.4977 20.375 12.4117C20.125 12.4117 19.875 12.4117 19.625 12.4117C19.6044 11.4977 19.6252 10.595 19.6875 9.70331Z" fill="#1C150C"/>
<path fill-rule="evenodd" clip-rule="evenodd" d="M19.6875 9.70331C19.8958 9.70331 20.1042 9.70331 20.3125 9.70331C20.3125 10.5851 20.3125 11.4669 20.3125 12.3487C20.1042 12.3487 19.8958 12.3487 19.6875 12.3487C19.6875 11.4669 19.6875 10.5851 19.6875 9.70331Z" fill="black"/>
<path fill-rule="evenodd" clip-rule="evenodd" d="M25.0625 9.70331C25.0625 10.5851 25.0625 11.4669 25.0625 12.3487C24.8333 12.3487 24.6042 12.3487 24.375 12.3487C24.375 11.4669 24.375 10.5851 24.375 9.70331C24.6042 9.70331 24.8333 9.70331 25.0625 9.70331Z" fill="black"/>
<path fill-rule="evenodd" clip-rule="evenodd" d="M25.0625 9.70331C25.1247 10.595 25.1456 11.4977 25.125 12.4117C24.8624 12.4316 24.6124 12.4106 24.375 12.3487C24.6042 12.3487 24.8333 12.3487 25.0625 12.3487C25.0625 11.4669 25.0625 10.5851 25.0625 9.70331Z" fill="#4E371F"/>
<path fill-rule="evenodd" clip-rule="evenodd" d="M3.18733 15.057C7.81239 15.0465 12.4374 15.057 17.0623 15.0885C17.7187 15.225 18.0937 15.6238 18.1873 16.2853C18.0228 17.7456 17.8562 19.2047 17.6873 20.6627C12.6456 20.6627 7.60401 20.6627 2.56233 20.6627C2.4384 19.3812 2.30298 18.1005 2.15608 16.8206C1.96998 15.908 2.31373 15.3202 3.18733 15.057Z" fill="#E7E7E7"/>
<path fill-rule="evenodd" clip-rule="evenodd" d="M18.4375 20.5997C22.7083 20.5997 26.9792 20.5997 31.25 20.5997C31.25 22.3213 31.25 24.0429 31.25 25.7645C27.6249 25.775 23.9999 25.7645 20.375 25.733C20.2957 25.5206 20.1915 25.3211 20.0625 25.1346C20.1721 24.9768 20.2658 24.8089 20.3438 24.6307C20.3854 24.0848 20.3854 23.539 20.3438 22.9931C20.3155 22.8263 20.2634 22.6688 20.1875 22.5207C21.5207 22.4892 22.854 22.4787 24.1875 22.4892C24.1875 22.2373 24.1875 21.9854 24.1875 21.7334C22.7917 21.7334 21.3958 21.7334 20 21.7334C20.01 21.8404 19.9996 21.9454 19.9688 22.0484C19.6298 21.423 19.1194 21.0241 18.4375 20.8516C18.4375 20.7677 18.4375 20.6837 18.4375 20.5997Z" fill="#E89F71"/>
<path fill-rule="evenodd" clip-rule="evenodd" d="M2.31254 21.4185C7.50011 21.408 12.6876 21.4185 17.875 21.45C18.7773 21.5945 19.3502 22.1089 19.5938 22.9932C19.6355 23.497 19.6355 24.0009 19.5938 24.5048C19.5647 24.5949 19.5126 24.6684 19.4375 24.7252C13.2709 24.7672 7.10423 24.7672 0.937543 24.7252C0.885461 24.6728 0.833374 24.6202 0.781293 24.5678C0.723786 23.9542 0.744624 23.3454 0.843793 22.7412C1.13108 22.0629 1.62067 21.622 2.31254 21.4185Z" fill="#E7E7E7"/>
<path fill-rule="evenodd" clip-rule="evenodd" d="M1 25.5125C7.12506 25.502 13.2501 25.5125 19.375 25.544C19.4896 25.5755 19.5625 25.649 19.5938 25.7645C19.6354 26.7092 19.6354 27.654 19.5938 28.5988C19.5647 28.6889 19.5126 28.7624 19.4375 28.8192C13.2708 28.8612 7.10419 28.8612 0.937502 28.8192C0.88542 28.7668 0.833333 28.7142 0.781252 28.6618C0.739583 27.696 0.739583 26.7302 0.781252 25.7645C0.824358 25.6479 0.897277 25.5639 1 25.5125Z" fill="#E89F71"/>
<path fill-rule="evenodd" clip-rule="evenodd" d="M20.375 26.5203C24 26.5203 27.625 26.5203 31.25 26.5203C31.25 28.0739 31.25 29.6275 31.25 31.1812C27.2292 31.1812 23.2083 31.1812 19.1875 31.1812C19.1875 30.6563 19.1875 30.1314 19.1875 29.6066C19.7224 29.5827 20.0974 29.3203 20.3125 28.8192C21.604 28.7878 22.8957 28.7772 24.1875 28.7878C24.1875 28.5568 24.1875 28.3259 24.1875 28.0949C22.9167 28.0949 21.6458 28.0949 20.375 28.0949C20.375 27.5701 20.375 27.0451 20.375 26.5203Z" fill="#E89F71"/>
<path fill-rule="evenodd" clip-rule="evenodd" d="M2.1875 29.6066C2.64583 29.6066 3.10417 29.6066 3.5625 29.6066C3.4296 30.0924 3.28376 30.5753 3.125 31.0552C2.81525 31.1178 2.50275 31.1388 2.1875 31.1182C2.1875 30.6143 2.1875 30.1104 2.1875 29.6066Z" fill="#A66F3F"/>
<path fill-rule="evenodd" clip-rule="evenodd" d="M16.6875 31.0552C15.5853 31.1804 14.4603 31.2223 13.3125 31.1812C13.3125 30.6563 13.3125 30.1314 13.3125 29.6065C14.2919 29.596 15.2711 29.6065 16.25 29.638C16.4146 30.1041 16.5604 30.5765 16.6875 31.0552Z" fill="#E89F71"/>
<path fill-rule="evenodd" clip-rule="evenodd" d="M17.0625 29.6066C17.5208 29.6066 17.9792 29.6066 18.4375 29.6066C18.4375 30.1104 18.4375 30.6143 18.4375 31.1182C18.1222 31.1388 17.8097 31.1178 17.5 31.0552C17.3159 30.5829 17.1701 30.1 17.0625 29.6066Z" fill="#A6703F"/>
<path fill-rule="evenodd" clip-rule="evenodd" d="M16.6875 31.0552C16.744 31.0999 16.7648 31.1628 16.75 31.2442C15.5932 31.2649 14.4474 31.244 13.3125 31.1812C14.4602 31.2223 15.5852 31.1804 16.6875 31.0552Z" fill="#382615"/>
</svg>
